/* XPM */
static char *_b52da4da30f44ded34f542d2aea1889TjfLJa03XYYRh4Cu[] = {
/* columns rows colors chars-per-pixel */
"100 80 194 2 ",
"   c None",
".  c #1F1E1B",
"X  c #1B1D32",
"o  c #151832",
"O  c #281E34",
"+  c #1E2031",
"@  c #1D2138",
"#  c #2E2E2E",
"$  c #322F2D",
"%  c #36332D",
"&  c #222432",
"*  c #23263C",
"=  c #342C38",
"-  c #382F37",
";  c #3A3D3D",
":  c #32343E",
">  c #2E303F",
",  c #463E31",
"<  c #6D3427",
"1  c #3B403E",
"2  c #5A4924",
"3  c #564625",
"4  c #494C3B",
"5  c #44463D",
"6  c #5A5734",
"7  c #594B33",
"8  c #64572C",
"9  c #695B31",
"0  c #6A6C33",
"q  c #676A34",
"w  c #6F7133",
"e  c #6E702B",
"r  c #2F3341",
"t  c #323441",
"y  c #353840",
"u  c #3A3241",
"i  c #272B41",
"p  c #5E034A",
"a  c #5C0B49",
"s  c #481C45",
"d  c #541447",
"f  c #551248",
"g  c #62074A",
"h  c #65084B",
"j  c #6A094C",
"k  c #6A094B",
"l  c #750B4E",
"z  c #7B0D4E",
"x  c #74064F",
"c  c #6B1846",
"v  c #7D0D50",
"b  c #492744",
"n  c #532B48",
"m  c #512B47",
"M  c #7B2E41",
"N  c #4B4948",
"B  c #6A5E48",
"V  c #674541",
"C  c #9C1D02",
"Z  c #9F2104",
"A  c #A32502",
"S  c #A62B08",
"D  c #AF3101",
"F  c #AF3F1A",
"G  c #8A3926",
"H  c #BE4101",
"J  c #88681B",
"K  c #8E4D3A",
"L  c #9D5439",
"P  c #A2522A",
"I  c #8F7024",
"U  c #AD613A",
"Y  c #C64B02",
"T  c #CE5301",
"R  c #D15500",
"E  c #D95E00",
"W  c #DE6400",
"Q  c #E06600",
"!  c #E26A00",
"~  c #E47502",
"^  c #E67F02",
"/  c #E5781A",
"(  c #D6762E",
")  c #840F51",
"_  c #8F0F54",
"`  c #8D1153",
"'  c #951355",
"]  c #9A1456",
"[  c #9A1855",
"{  c #A11557",
"}  c #A51658",
"|  c #A91759",
" . c #A91A58",
".. c #B12B5E",
"X. c #B23154",
"o. c #BE5146",
"O. c #CC7541",
"+. c #C76847",
"@. c #E97953",
"#. c #9A9B1E",
"$. c #B79416",
"%. c #ABAC1D",
"&. c #BEBE19",
"*. c #8D8E20",
"=. c #8C8D2B",
"-. c #979828",
";. c #918D2B",
":. c #B58C29",
">. c #A9A923",
",. c #B5B621",
"<. c #D68E11",
"1. c #EC9203",
"2. c #EE9A04",
"3. c #F09E03",
"4. c #CBBF1E",
"5. c #EEA806",
"6. c #F4AA08",
"7. c #F5B304",
"8. c #F7BC05",
"9. c #FBB803",
"0. c #F0B012",
"q. c #EB8C2D",
"w. c #CEAF23",
"e. c #F0BE2F",
"r. c #C4C51C",
"t. c #C9C91B",
"y. c #D6D718",
"u. c #FAC906",
"i. c #F8C807",
"p. c #FAD408",
"a. c #FBDB09",
"s. c #F6D60A",
"d. c #FDE50B",
"f. c #FDEB0B",
"g. c #FEF40E",
"h. c #FFFF0F",
"j. c #E5E516",
"k. c #EBEA13",
"l. c #F5E616",
"z. c #F4F411",
"x. c #FCF510",
"c. c #FCFB11",
"v. c #FDF31A",
"b. c #F9CF2B",
"n. c #FBE42A",
"m. c #FDEA36",
"M. c #FEF625",
"N. c #98835B",
"B. c #BA9961",
"V. c #B79760",
"C. c #D4834B",
"Z. c #D98E52",
"A. c #CB985D",
"S. c #DA985A",
"D. c #EB8142",
"F. c #E29D5D",
"G. c #ED9455",
"H. c #F3BA52",
"J. c #F1B258",
"K. c #D58D65",
"L. c #ED9B6C",
"P. c #EC9866",
"I. c #EE9F70",
"U. c #CAA76A",
"Y. c #DAB674",
"T. c #EFA662",
"R. c #EFA26F",
"E. c #F1A872",
"W. c #E3BB7A",
"Q. c #F4B577",
"!. c #F4BB7C",
"~. c #F3BF76",
"^. c #F3B768",
"/. c #F8D35D",
"(. c #FDE748",
"). c #FDE848",
"_. c #FDE845",
"`. c #FDE059",
"'. c #FCDB66",
"]. c #EAC27A",
"[. c #F7C37D",
"{. c #F9C97E",
"}. c #F9C67A",
"|. c #FBCE81",
" X c #F7CB80",
".X c #FFD385",
"XX c #F5DCAF",
"oX c #C8C8C8",
"OX c #E7DAC5",
"+X c #FCE7C1",
"@X c #EAE1DF",
"#X c #FCEFDA",
"$X c #E4E1E1",
"%X c #FCFEFF",
/* pixels */
"                                                                                                                                                                                                        ",
"                                                                                                                                                                                                        ",
"                                                                                                                                                                                                        ",
"                                                                                                                                                                                                        ",
"                                                                                                                                                                                                        ",
"                                                                                                                                                                                                        ",
"                                                                                        Q Q Q Q Q Q                                                                                                     ",
"                                                                                    ! ! Q Q Q W Q Q !                                                                                                   ",
"                                                                                  Y T T T W ! ! ! W R                                                                                                   ",
"                                                                              E D Z C C A T E E E R A                                                                                                   ",
"                                                                            W W E D Z A Z S A Z A A Z                                                                                                   ",
"                                                                          D H W W R ( F.F.S.F C C S Z.                                                                                                  ",
"                                                                          C A Y W q.^..X.X.XS.( O.C.|.                                                                                                  ",
"                                                                          C C A Y T.Y.V.B.B.]..X].B.B.                                                                                                  ",
"                                                                            C C A F.N.# # . B..XB.. #                                                                                                   ",
"                                                                              Z Z F.XX$XoX% B..XB.$ oX                                                                                                  ",
"                                                                            [.Z.S S.+X%X$XG S..XS.G $X                                                                                                  ",
"                                                                          .X{.}.C.^.+X%X@X< A..XA.< $X                                                                                                  ",
"                                                                            |.|..X|.XX#XOXB U..XU.B OX                                                                                                  ",
"                                                                              |.|.|.|.|.|.|.|.|.|.|.|.                                                                                                  ",
"                                                                                |.|.|.|.|.|.|.|.|.|.|.                                                                                                  ",
"                                                                                E.E.!.|.|.|.|.|.|.|.                                                                                                    ",
"                                                                                L.L.E.Q.Q. X    |.                                                                                                      ",
"                                                                                J.T.L.L.L.                                                                                                              ",
"                                                                              h.c.H.R.I.P./ ~ ^                                                                                                         ",
"                                                                      c.h.h.c.h.c./. X|.}.}.n.p.7.                                                                                                      ",
"                                                                    h.h.h.h.h.h.c.M.`.|.{..X'.m.a.9.                                                                                                    ",
"                                                                    h.h.c.h.h.h.h.h.(.|..X{.|.(.f.7.7.                                                                                                  ",
"                                                                    h.h.h.h.h.h.f.h.(.|.|.|.|.(.f.7.7.                                                                                                  ",
"                                                                    c.h.h.h.c.g.8.f.(.|.{. X|.(.f.7.9.                                                                                                  ",
"                                                                  h.h.h.h.h.h.g.8.f.(.[.R.R.[.(.f.7.7.                                                                                                  ",
"                                                                h.h.h.h.c.h.g.u.9.f.).|.!.!. X_.h.d.8.7.                                                                                                ",
"                                                                  h.h.h.h.f.p.7.a.g._.|.|.|.|.'.m.c.8.7.7.                                                                                              ",
"                                                                h.c.h.c.h.a.7.8.g.h._.|.|.|.|.|.'.x.8.7.7.                                                                                              ",
"                                                              g.h.h.h.h.c.p.7.i.g.h._.}.!.!.!.!./.x.8.7.7.6.                                                                                            ",
"                                                            7.8.a.h.h.h.  9.i.g.h.h.c.b.........+.g.i.7.1.! !                                                                                           ",
"                                                        h.g.8.7.8.a.h.c.    g.h.h.h.h.w.z l l x L x.f.2.! ~ 5.6.                                                                                        ",
"                                                      h.h.g.a.a.a.a.a.g.    h.c.h.h.h.4.b s s s n >.z.1.~ 2.7.7.                                                                                        ",
"                                                        h.h.h.h.h.f.u.    c.h.h.h.h.h.r.y t r r : 4 j.5.1.9.7.7.                                                                                        ",
"                                                          v.v.v.c.c.h.    h.h.h.h.h.h.r.y t t t t 4 j.u.9.7.6.                                                                                          ",
"                                                          T.T.T.b.g.h.    h.h.c.h.h.h.r.y t t r r 4 j.g.u.0.@.                                                                                          ",
"                                                        [.L.L.L.T./.        h.h.h.h.h.r.t t t t r ; 0 y.b.q.@.P.                                                                                        ",
"                                                      {.{.Q.Q.R.L.L.      h.h.h.c.h.h.j.;.1 r t r r : t.e.@.G.L.                                                                                        ",
"                                                      .X|.|.{.Q.R.L.    h.c.h.h.h.h.h.h.k.V m n m m b t.b.G.L.L.                                                                                        ",
"                                                      {.|.|.|.|.        c.h.c.c.h.h.h.h.l.X.} |  .] j w.g.n.R.L.L.                                                                                      ",
"                                                      .X|.|.|.          c.h.c.c.c.c.c.g.l.X.| | | { j c :.n.L.L.L.L.                                                                                    ",
"                                                      {.|.{.|.          h.d.u.8.L K K L o. .| | | | ' j :.n.L.L.L.L.L.                                                                                  ",
"                                                      .X{..X|.              <.P c p p x { } | | | | | _ U   L.L.L.L.L.                                                                                  ",
"                                                      |.|..X                  l l l l ) | | | | | | | | |     L.L.L.L.                                                                                  ",
"                                                      W.W.W.                | | | | | | | { { { { { { | | |     K.K.K.Z.                                                                                ",
"                                                      N N N y             | | | | | | | { l j j j j j ] | |     - = = -                                                                                 ",
"                                                      t.r.,.5 t         | | | } | | | ] l   g g g h _ } | |   X X X , $.                                                                                ",
"                                                      -.-.;.1 r t       | | | | | | ] v     g g g j { | | |   X X X % J                                                                                 ",
"                                                      0 0 0 0 5 r       | | | | | ] v a     g g p j } | | |   O X X # 3                                                                                 ",
"                                                        c.c.z.0       | | | | | { l g       g g g j ] | | | ] O X X 2 6.                                                                                ",
"                                                                      | | | | ] l h           g g j { | | | |                                                                                           ",
"                                                                    | | | | ] l h               g j { | | | | |                                                                                         ",
"                                                                  | | | | ' z h g             g g j { | | | | |                                                                                         ",
"                                                                | | | | | ) g g g             g g k ` } | | | |                                                                                         ",
"                                                              | | | | | { ) g g                 g g h ' | | | |                                                                                         ",
"                                                            | | | | | | v h g g               g g g g ' | | | |                                                                                         ",
"                                                          | | | | | | | l g g               g g g g g ' | | | |                                                                                         ",
"                                                        | | | | | | } ) j g g               g g g g h ' | | | |                                                                                         ",
"                                                      | | | | | }  .' h g g g               g g g g h ) { | |                                                                                           ",
"                                                    { { { | | | } _ h g g g               g g g g g g g ) { {                                                                                           ",
"                                                    j j v }  .| ` h g g g                 g g g g g g g h j j                                                                                           ",
"                                                    g g j l l l j g g h g g               g g g g g g g g g g                                                                                           ",
"                                                      g g g g g g g g g g                 g g g g g g g g g g                                                                                           ",
"                                                        a f d d d f g g                   g g g g g g g g g g                                                                                           ",
"                                                          5 y t t t                         M c a a a g g g                                                                                             ",
"                                                  c.h.h.c.y.4 t y                         h.z.;.y u u                                                                                                   ",
"                                                h.h.h.h.h.c.t.r.                          c.h.j.r.r.r.k.h.h.                                                                                            ",
"                                                k.#.*.*.*.-.c.h.h.                          #.t.h.h.h.h.h.h.                                                                                            ",
"                                                  X X @ X # %.k.                            o e r.&.&.&.y.h.h.                                                                                          ",
"                                                  4 4 4 ; + +                               + + & & & % 6                                                                                               ",
"                                                z.j.j.k.%.&                               X + X & > : %.z.c.                                                                                            ",
"                                              5 q q w w 6 +                               X X + + * t 6 %.u.9.                                                                                          ",
"                                            w -.-.-.4 @ + X                               J % o X X @ > 8 I I ,   a.                                                                                    ",
"                                          0 ,.h.c.c.-.8 2 2                               7.J 3 2 3 2 8 9 9 0 0 y.d.u.                                                                                  ",
"                                          h.c.c.c.c.c.s.7.7.                              7.7.7.7.7.7.5.6.i.c.c.h.h.h.                                                                                  "
};
