/* XPM */
static char *_33edea5d850478be69ba8680e3165a3HilJQ8TLb3iUObPv[] = {
/* columns rows colors chars-per-pixel */
"100 80 200 2 ",
"   c None",
".  c gray11",
"X  c #171A32",
"o  c #1B1D32",
"O  c #281D34",
"+  c #1E2031",
"@  c #1D2138",
"#  c #2A292B",
"$  c #342D24",
"%  c #36322C",
"&  c #222432",
"*  c #23263C",
"=  c #2E303F",
"-  c #313130",
";  c #36383F",
":  c #6D2F1B",
">  c #483F3B",
",  c #7E611D",
"<  c #5B4924",
"1  c #524324",
"2  c #44443C",
"3  c #4A4C3B",
"4  c #454639",
"5  c #585636",
"6  c #46482B",
"7  c #665628",
"8  c #695B35",
"9  c #5E6036",
"0  c #6A6C33",
"q  c #696535",
"w  c #6F7133",
"e  c #767930",
"r  c #3A2E44",
"t  c #2E3142",
"y  c #313441",
"u  c #3E3143",
"i  c #363940",
"p  c #272B41",
"a  c #5F044A",
"s  c #5D0C49",
"d  c #531447",
"f  c #521148",
"g  c #62074A",
"h  c #64084A",
"j  c #6A094C",
"k  c #750B4E",
"l  c #7B0D4F",
"z  c #7E0C51",
"x  c #631347",
"c  c #732343",
"v  c #564142",
"b  c #54504F",
"n  c #685D54",
"m  c #6C5F48",
"M  c #9C1C01",
"N  c #9F2002",
"B  c #8A3419",
"V  c #A22302",
"C  c #AA2B01",
"Z  c #AF3000",
"A  c #B73A01",
"S  c #A83211",
"D  c #8E353A",
"F  c #AF401A",
"G  c #B84410",
"H  c #89691A",
"J  c #8E4E36",
"K  c #B34720",
"L  c #8F7024",
"P  c #C54901",
"I  c #CE5201",
"U  c #D75D00",
"Y  c #D95E00",
"T  c #DD6300",
"R  c #C67B19",
"E  c #E06600",
"W  c #E16A02",
"Q  c #E37308",
"!  c #CA6C36",
"~  c #83194E",
"^  c #840C51",
"/  c #850A53",
"(  c #8E1254",
")  c #871C51",
"_  c #941354",
"`  c #9B1456",
"'  c #9B1A56",
"]  c #921853",
"[  c #930E56",
"{  c #A11557",
"}  c #A51658",
"|  c #A91759",
" . c #AB1C5A",
".. c #BA3A57",
"X. c #90574D",
"o. c #B04E4B",
"O. c #877049",
"+. c #AF7041",
"@. c #817662",
"#. c #C14F55",
"$. c #CC7542",
"%. c #CF7843",
"&. c #D07943",
"*. c #C14A65",
"=. c #C04560",
"-. c #DE7C69",
";. c #97981F",
":. c #BD8D10",
">. c #B69F1C",
",. c #BDBE1B",
"<. c #B0B11B",
"1. c #A8A91C",
"2. c #8D8E20",
"3. c #9A9C26",
"4. c #979928",
"5. c #999A28",
"6. c #949529",
"7. c #A9892B",
"8. c #B5B621",
"9. c #E98602",
"0. c #EB9905",
"q. c #DEA710",
"w. c #E0A60A",
"e. c #F5B304",
"r. c #F7BC05",
"t. c #FBB803",
"y. c #C78832",
"u. c #D48935",
"i. c #EA842D",
"p. c #EDAE32",
"a. c #BFC018",
"s. c #C3C41B",
"d. c #CBCC1B",
"f. c #D4D619",
"g. c #F9CA07",
"h. c #F9CE08",
"j. c #F7C607",
"k. c #FBDA09",
"l. c #F6D60A",
"z. c #F1D114",
"x. c #FDED0C",
"c. c #FEE60A",
"v. c #FEF30D",
"b. c #FFFF0F",
"n. c #E5E515",
"m. c #EAEA14",
"M. c #EAE516",
"N. c #FEF510",
"B. c #F7F811",
"V. c #FEFC11",
"C. c #F7F514",
"Z. c #F6CA3B",
"A. c #F9DF2D",
"S. c #FCEB22",
"D. c #FEF42D",
"F. c #FEF230",
"G. c #A48957",
"H. c #B99B63",
"J. c #CE8D4C",
"K. c #E29E5F",
"L. c #EA8E51",
"P. c #F0A15E",
"I. c #F3B652",
"U. c #F2B950",
"Y. c #F3BE4B",
"T. c #E68665",
"R. c #ED9B6C",
"E. c #CFAC6E",
"W. c #EFA663",
"Q. c #F1AA72",
"!. c #F0A671",
"~. c #E6BA75",
"^. c #F4B577",
"/. c #F2BB74",
"(. c #F6BD7B",
"). c #F4BE6F",
"_. c #FCDF59",
"`. c #FDE54B",
"'. c #FDE946",
"]. c #FCE057",
"[. c #FCDC61",
"{. c #F7C07C",
"}. c #F8C47D",
"|. c #F6CB7F",
" X c #FACB7F",
".X c #F8C472",
"XX c #FCD379",
"oX c #A4A4A5",
"OX c #CEBBB1",
"+X c #FBCE81",
"@X c #F7CB80",
"#X c #FED184",
"$X c gray86",
"%X c #E7DBC5",
"&X c #F9EDD7",
"*X c #FDF1DB",
"=X c #FBE6C0",
"-X c #FEFFFF",
";X c #F8F7F7",
":X c #E2E3E4",
/* pixels */
"                                                                                                                                                                                                        ",
"                                                                                                                                                                                                        ",
"                                                                                                                                                                                                        ",
"                                                                                                                                                                                                        ",
"                                                                                                                                                                                                        ",
"                                                                                                                                                                                                        ",
"                                                                                                                                                                                                        ",
"                                                                                      E E W T W                                                                                                         ",
"                                                                                    W W W T W W E                                                                                                       ",
"                                                                                Y Y U Y W T W T T Y                                                                                                     ",
"                                                                              M V V V A T T T T I C                                                                                                     ",
"                                                                            Y P V M M N Z Z Z Z C M                                                                                                     ",
"                                                                          E E T P ! %.%.%.$.! %.%.%.                                                                                                    ",
"                                                                        I U W W i.J.H.H.E.|.#X~.H.H.                                                                                                    ",
"                                                                        M A T Q ).m - # # E.#XO.. -                                                                                                     ",
"                                                                        M V A Q .X%X:XoX$ ~.#XO.b $X                                                                                                    ",
"                                                                        N M V G /.*X-XOXB /.#X+.X.;X                                                                                                    ",
"                                                                          M N S /.*X-XOX: ~.#X+.X.;X                                                                                                    ",
"                                                                          ! S S /.=X*XOX8 ~.#XG.@.&X                                                                                                    ",
"                                                                        #X#XK.K /.+X+X+X@X#X+X X|.+X                                                                                                    ",
"                                                                        +X+X X/.@X+X+X+X+X+X+X#X+X+X                                                                                                    ",
"                                                                          +X+X#X#X@X+X+X+X+X+X+X+X                                                                                                      ",
"                                                                            {.^.^.|.#X X+X+X  +X                                                                                                        ",
"                                                                              R.R.^.{.}.+X                                                                                                              ",
"                                                                              W.W.R.R.R.                                                                                                                ",
"                                                                            V.S.P.R.R.L.W W                                                                                                             ",
"                                                                    V.b.V.V.b.C..X{.{./.I.z.r.                                                                                                          ",
"                                                                  V.b.V.V.V.V.V.'.XX+X+XXX`.S.g.                                                                                                        ",
"                                                                b.V.b.b.V.b.b.b.V.[.+X+X+X+XD.k.e.                                                                                                      ",
"                                                                  b.b.b.b.b.V.v.V.[.+X+X+XXXF.k.e.e.                                                                                                    ",
"                                                                b.b.b.b.b.b.x.g.N.[.+X+X+X#XF.k.e.e.                                                                                                    ",
"                                                              b.b.b.b.b.b.b.x.r.N.[.(.Q.Q. XD.v.k.e.                                                                                                    ",
"                                                              b.b.b.b.b.V.x.h.r.N.[.{.^.^. X_.D.c.e.e.                                                                                                  ",
"                                                              b.b.b.b.b.v.h.r.h.N.[.+X#X+X+X+X'.c.e.r.                                                                                                  ",
"                                                              b.V.b.b.b.g.e.g.b.V._.+X+X+X+X+X`.x.r.e.                                                                                                  ",
"                                                            b.V.b.b.b.b.g.e.g.b.V.N.].@X+X+X@X`.b.x.r.e.                                                                                                ",
"                                                          r.g.v.b.b.b.  e.h.v.b.b.b.p.*.*.*.*.o.u.v.t.9.Q E                                                                                             ",
"                                                        k.e.e.g.x.b.V.  k.x.b.V.b.b.7./ / / [ / o.x.0.W Q 0.                                                                                            ",
"                                                    b.b.v.g.g.g.k.x.b.  b.b.b.b.b.b.7.f d d d f 8 x.0.9.0.t.e.                                                                                          ",
"                                                    b.b.b.b.V.V.k.r.    b.b.b.b.V.V.4.t y y y t q m.b.g.e.e.e.                                                                                          ",
"                                                      V.V.V.V.V.b.v.    b.b.b.b.b.b.5.t y y y y ; 9 m.g.e.t.                                                                                            ",
"                                                        U.U.U.S.b.b.  b.b.b.b.b.b.b.4.t y y t y = 4 m.v.p.i.                                                                                            ",
"                                                      Q.R.R.R.Y.A.    b.V.b.b.b.b.b.4.t y y y y y 3 z.v.Z.T.                                                                                            ",
"                                                    #X(.Q.!.R.R.      b.b.b.b.b.b.b.4.t y y y y t 4 w.v.Z.R.R.                                                                                          ",
"                                                    +X+X+X@XQ.R.    b.b.b.b.b.b.b.b.5.r u u u u r > w.c.`.R.R.                                                                                          ",
"                                                    +X+X+X+X+X      b.b.b.b.V.N.v.b.u.` ' { ' { ( c 0.r.p.R.R.R.                                                                                        ",
"                                                    +X+X+X+X        b.b.k.g.q.J J o.o.| | | | | } [ D J.P.R.R.R.                                                                                        ",
"                                                    +X+X+X+X          V.  R J g a [ | | | | | | | | / o.-.R.R.R.R.                                                                                      ",
"                                                    #X+X+X+X              z k k k ` | | | | | | | | | | =.T.R.R.R.R.                                                                                    ",
"                                                    +X+X+X              | | | } | | | | | | | | | | | | | ..R.R.R.R.                                                                                    ",
"                                                    @X@X+X            | | | | | | | | | | } | } | | | | |  .  R.R.R.R.                                                                                  ",
"                                                    n n b y           | | | | | | | | ` l k k k k k k ` | |   v v v v                                                                                   ",
"                                                    4.3.e i y       | | | | | | | | ` l g g g g a j / `  .] o o X < H                                                                                   ",
"                                                    d.d.3.y y       | | | | | | | ` l a     g g a j } | | ~ O o X 7 :.                                                                                  ",
"                                                    3 3 3 3 y   | | | | | | | | { l         g g a j } | | ) O o + # %                                                                                   ",
"                                                    m.n.m.f.3 ) | | | | | } | ` k             g g j ` | | } ] O X H w.                                                                                  ",
"                                                              ' | | | | | ( k k                 g j { | | | }                                                                                           ",
"                                                              | | | | | _ k g                   g j { | | | | |                                                                                         ",
"                                                            | | | | | _ j g g                 g g h _ } | | | |                                                                                         ",
"                                                          | | | | | ` j h g                 g g g g h _ | | | |                                                                                         ",
"                                                        | | | | | ` j h g                   g g g g h _ | | | |                                                                                         ",
"                                                    | | | | | | _ j g g                   g g g g j ( } | | |                                                                                           ",
"                                                    | | | | | } ^ a g g                   g g g g j } | | | |                                                                                           ",
"                                                  | | | | | | ` z h g g                   g g g g j ( } | | |                                                                                           ",
"                                                  { | | | } { k g g g g                 g g g g g g h ( { {                                                                                             ",
"                                                  j _ | | { k h g g g                   g g g g g h g j j j                                                                                             ",
"                                                  g k k k k g g g g g                   g g g g g g g g g g                                                                                             ",
"                                                    g g g g g g g g                     g g g h g g g g g g                                                                                             ",
"                                                    d d f d d s g g                     g g h g g g g g g g                                                                                             ",
"                                                    5 3 2 y y                             c x s s s g g                                                                                                 ",
"                                                V.b.m.m.8.i                             V.M.q r u u                                                                                                     ",
"                                              V.b.b.b.b.C.d.B.                          b.b.f.s.s.d.B.b.                                                                                                ",
"                                              d.2.2.2.2.<.V.b.                          n.;.n.b.b.b.b.b.b.                                                                                              ",
"                                                o @ X X 6 a.B.                            o 2.s.a.,.,.m.b.b.                                                                                            ",
"                                                3 3 3 2 - &                               + & & & & &                                                                                                   ",
"                                                n.n.n.n.1.&                               o o o & = = ,.b.b.                                                                                            ",
"                                              2 0 0 0 w 5 +                               X o o + * t 5 >.h.t.                                                                                          ",
"                                            e 4.6.6.3 p + X                               H % X X o @ p 8 L L 2   k.                                                                                    ",
"                                          0 8.b.b.B.4.7 < <                               e.H < < < < 7 7 8 0 w f.c.g.                                                                                  ",
"                                          B.b.b.b.b.B.l.e.e.                              e.e.e.e.e.e.e.e.j.B.B.b.b.b.                                                                                  "
};
