/* XPM */
static char *_c5c2a5ff1d24ec0f76d297e0d834d69bxvxllRq7ZRbajyO[] = {
/* columns rows colors chars-per-pixel */
"100 80 195 2 ",
"   c None",
".  c #1F1E1B",
"X  c #1B1D32",
"o  c #151832",
"O  c #281E34",
"+  c #1E2031",
"@  c #1D2138",
"#  c #2E2E2E",
"$  c #322F2D",
"%  c #36332D",
"&  c #222432",
"*  c #23263C",
"=  c #342C38",
"-  c #382F37",
";  c #2E303F",
":  c #383A3C",
">  c #463E31",
",  c #6D3427",
"<  c #5A4924",
"1  c #564625",
"2  c #494C3B",
"3  c #43463D",
"4  c #5A5935",
"5  c #554B34",
"6  c #64572C",
"7  c #695B31",
"8  c #7D5E36",
"9  c #6A6C33",
"0  c #6F7133",
"q  c #6E702B",
"w  c #2F3341",
"e  c #323441",
"r  c #343840",
"t  c #3A3241",
"y  c #272B41",
"u  c #5C0B49",
"i  c #471C45",
"p  c #541447",
"a  c #551248",
"s  c #62074A",
"d  c #66094A",
"f  c #6A094C",
"g  c #680D47",
"h  c #750B4E",
"j  c #7A0D4F",
"k  c #74054F",
"l  c #72134B",
"z  c #4C2546",
"x  c #532C48",
"c  c #562E47",
"v  c #772743",
"b  c #4B4948",
"n  c #6A5E48",
"m  c #9C1D02",
"M  c #9F2104",
"N  c #A32502",
"B  c #A62B08",
"V  c #AF3101",
"C  c #AF3F1A",
"Z  c #8A3926",
"A  c #BE4101",
"S  c #88681B",
"D  c #8B493A",
"F  c #9D5638",
"G  c #A2522A",
"H  c #8F7024",
"J  c #A5752E",
"K  c #C64B02",
"L  c #CE5301",
"P  c #D15500",
"I  c #D95E00",
"U  c #DE6400",
"Y  c #E06600",
"T  c #E26A00",
"R  c #E47502",
"E  c #E67F02",
"W  c #E5781A",
"Q  c #D6762E",
"!  c #840E52",
"~  c #8D1153",
"^  c #941255",
"/  c #9B1456",
"(  c #9A1855",
")  c #920E56",
"_  c #A11557",
"`  c #A51658",
"'  c #A91759",
"]  c #A71859",
"[  c #A81859",
"{  c #B12B5E",
"}  c #B53456",
"|  c #B35641",
" . c #CC7541",
".. c #C76847",
"X. c #E97953",
"o. c #9A9B1E",
"O. c #B79416",
"+. c #ABAC1D",
"@. c #BEBE19",
"#. c #8D8E20",
"$. c #8C8D2B",
"%. c #979928",
"&. c #969829",
"*. c #938A2C",
"=. c #BC932F",
"-. c #AEAF20",
";. c #B5B621",
":. c #D68F11",
">. c #ED9703",
",. c #EC9704",
"<. c #CBBF1E",
"1. c #EDA706",
"2. c #F4AA08",
"3. c #F5B304",
"4. c #F7BC05",
"5. c #FBB803",
"6. c #F0B012",
"7. c #D48B34",
"8. c #EB8C2D",
"9. c #D8B921",
"0. c #F4BA2F",
"q. c #C4C51C",
"w. c #C8CA1B",
"e. c #D5D618",
"r. c #F8C607",
"t. c #FAC907",
"y. c #F7CA08",
"u. c #FAD408",
"i. c #FBDA09",
"p. c #F6D60A",
"a. c #EADE17",
"s. c #FDEB0B",
"d. c #FDE50B",
"f. c #FEF40E",
"g. c #FFFF0F",
"h. c #E6E615",
"j. c #E9EA13",
"k. c #EAE615",
"l. c #F5E716",
"z. c #FCFB10",
"x. c #FDF31A",
"c. c #F8F511",
"v. c #F7CA25",
"b. c #F0CB2F",
"n. c #FAE12A",
"m. c #FFF725",
"M. c #FCE934",
"N. c #98835B",
"B. c #BA9961",
"V. c #B79760",
"C. c #D4834B",
"Z. c #D98E52",
"A. c #CB985D",
"S. c #DA985A",
"D. c #EB8142",
"F. c #E29D5D",
"G. c #ED9455",
"H. c #F0AD5F",
"J. c #F3BA52",
"K. c #F2B455",
"L. c #D58D65",
"P. c #ED9B6C",
"I. c #EC9866",
"U. c #EE9F70",
"Y. c #CAA76A",
"T. c #DAB674",
"R. c #EFA662",
"E. c #EFA26F",
"W. c #F1A872",
"Q. c #E3BB7A",
"!. c #F4B577",
"~. c #F4BB7B",
"^. c #F3BF76",
"/. c #F3B768",
"(. c #F8D35D",
"). c #FDE748",
"_. c #FDE848",
"`. c #FDE747",
"'. c #FDE159",
"]. c #FCD96C",
"[. c #EAC27A",
"{. c #F7C37D",
"}. c #F9C87F",
"|. c #F9C67A",
" X c #FBCE81",
".X c #F7CB80",
"XX c #FED384",
"oX c #F5DCAF",
"OX c #C8C8C8",
"+X c #E7DAC5",
"@X c #FCE7C1",
"#X c #EAE1DF",
"$X c #FCEFDA",
"%X c #E4E1E1",
"&X c #FCFEFF",
/* pixels */
"                                                                                                                                                                                                        ",
"                                                                                                                                                                                                        ",
"                                                                                                                                                                                                        ",
"                                                                                                                                                                                                        ",
"                                                                                                                                                                                                        ",
"                                                                                                                                                                                                        ",
"                                                                                        Y Y Y Y Y Y                                                                                                     ",
"                                                                                    T T Y Y Y Y Y Y T                                                                                                   ",
"                                                                                  K L L P Y Y Y Y U P                                                                                                   ",
"                                                                              I V M m m N P I I I P N                                                                                                   ",
"                                                                            U U I V M N m N M M N N N                                                                                                   ",
"                                                                          V A U U P Q F.F.F.G m m B Z.                                                                                                  ",
"                                                                          m N K U 8./.XXXXXXS.Q  .C. X                                                                                                  ",
"                                                                          m m N K H.T.V.B.B.[.XX[.B.B.                                                                                                  ",
"                                                                            m m N I.N.# # . B.XXB.. $                                                                                                   ",
"                                                                              M m F.oX%XOX$ B.XXB.$ OX                                                                                                  ",
"                                                                            {.Z.B S.@X&X%XZ S.XXS.Z %X                                                                                                  ",
"                                                                          }. X|.C./.@X&X%X, A.XXA., #X                                                                                                  ",
"                                                                             X XXX XoX$X+Xn Y.XXY.n +X                                                                                                  ",
"                                                                               X X X X X X X X X X.X X                                                                                                  ",
"                                                                                 X X X X X X X X X X X                                                                                                  ",
"                                                                                W.W.~. X X X X X X X                                                                                                    ",
"                                                                                P.P.W.!.!. X     X                                                                                                      ",
"                                                                                K.R.P.P.I.                                                                                                              ",
"                                                                              g.z.J.E.U.I.W R ,.                                                                                                        ",
"                                                                      z.g.g.z.g.z.(. X.X|.|.n.u.3.                                                                                                      ",
"                                                                    g.g.z.g.g.g.z.m.'. X}.}.].M.i.4.                                                                                                    ",
"                                                                    g.g.g.g.g.g.g.g.). XXX}.XX_.s.3.3.                                                                                                  ",
"                                                                    g.g.g.g.z.g.s.g.`. X X X X_.s.3.3.                                                                                                  ",
"                                                                    g.g.g.g.g.f.4.s._. X.X.X X_.s.3.3.                                                                                                  ",
"                                                                  z.z.g.g.g.g.f.4.s._.{.U.E.~._.s.3.3.                                                                                                  ",
"                                                                g.g.g.g.g.z.f.t.5.s.). X~.~..X`.g.d.4.5.                                                                                                ",
"                                                                  g.g.g.g.s.y.4.p.f.`.XX}.XX.X).z.f.4.3.3.                                                                                              ",
"                                                                g.g.z.g.g.i.3.4.f.g.M.].XX}..X'.m.z.4.3.3.                                                                                              ",
"                                                              f.g.g.g.g.z.u.3.r.f.g.g.n.^.~.~.~.(.z.4.3.2.2.                                                                                            ",
"                                                            3.5.i.z.g.g.  4.t.f.g.g.g.b.} { { { ..f.4.5.>.T T                                                                                           ",
"                                                        g.f.4.3.4.i.g.z.    f.g.g.g.g.9.j h h k F x.s.>.R R 1.2.                                                                                        ",
"                                                      g.g.g.i.i.i.i.i.f.    g.g.g.g.g.<.z i i i 8 z.z.,.R >.3.3.                                                                                        ",
"                                                        z.g.g.g.g.s.t.    g.g.z.g.z.z.q.e e w w 4 w.c.>.>.5.3.3.                                                                                        ",
"                                                          x.x.x.z.z.g.    g.g.g.g.g.g.q.: e e e e 2 k.u.3.3.2.                                                                                          ",
"                                                          R.R.R.b.g.g.    g.g.g.g.z.g.q.r e e w w 2 k.g.y.6.X.                                                                                          ",
"                                                        ~.P.P.I./.J.        z.g.g.g.g.q.r e e e w 2 h.g.v.8.X.I.                                                                                        ",
"                                                      XX}.!.!.E.P.P.      g.z.g.g.z.g.w.r e e e w 2 j.z.0.X.G.P.                                                                                        ",
"                                                       X X X X!.E.P.    g.g.g.z.g.z.l.=.c x x c x > k.z.v.G.P.P.                                                                                        ",
"                                                       X X X X X        g.g.z.z.g.g.7.' ' ' ' ' ) v a.z.g.n.P.P.P.                                                                                      ",
"                                                       X X X X        g.g.g.z.z.z.g.7.' ' ' ' ' / v a.z.g.n.P.P.P.P.                                                                                    ",
"                                                      XX X X X      z.z.i.r.t.4.F F } ' ' ' ' ' ^ f D D J   P.P.P.P.P.                                                                                  ",
"                                                      }. X X X      g.g.r.  :.G g ^ ' ' ' ' ' ' / ! ! !     P.P.P.P.P.                                                                                  ",
"                                                      XX XXX                  h h / ' ' ' ' ' ' ' ' ' ' '     P.P.P.I.                                                                                  ",
"                                                      Q.Q.Q.                ' ] ' ' ' ' ' _ _ _ ` _ _ ' ' '     L.L.L.L.                                                                                ",
"                                                      b b b e             ' ' ' ' ' ' ' _ h f f f f f / ' '     - = = $                                                                                 ",
"                                                      q.w.;.3 e         ' ' ' ' ' ' ' / h s s s u d ^ ` ' '   X X X > O.                                                                                ",
"                                                      %.%.$.: w e       ' ' ' ' ' ' / j s s s s s f _ ' ' '   X X X % S                                                                                 ",
"                                                      9 9 9 9 3 w       ' ' ' ' ' / j s s   s s s f _ ' ' '   O + + # <                                                                                 ",
"                                                        z.z.z.9       ' ' ' ' ' _ h s s     s s s f _ ' ' ' / O X o < 2.                                                                                ",
"                                                                      ' ' ' ' / h s s         s s f _ ' ' ' '                                                                                           ",
"                                                                    ' ' ' ' / h d s s           s f _ ' ' ' ' '                                                                                         ",
"                                                                  ' ' ' ' ^ j d s s           s s f _ ' ' ' ' '                                                                                         ",
"                                                                ' ' ' ' ' ! s s s             s s f ^ _ ' ' ' '                                                                                         ",
"                                                              ' ' ' ' ' ` ! s s s             s s s d ^ ' ' ' '                                                                                         ",
"                                                            ' ' ' ' ' ' j d s s               s s s s ^ ' ' ' '                                                                                         ",
"                                                          ' ' ' ' ' ' ' h s s s                 s s d ^ ' ' ' '                                                                                         ",
"                                                        ' ' ' ' ' ' ] ! f s s                 s s s s ^ ' ' ' '                                                                                         ",
"                                                      ' ' ' ] ' ' ` ^ d s s s               s s s s d ! _ ' ' '                                                                                         ",
"                                                    _ _ _ ' ' ' ` ~ s s s s                 s s s s s s ! _ _                                                                                           ",
"                                                    f f j ` ' ' ~ s s s s                 s s d s s s s d f f                                                                                           ",
"                                                    s s d j h h h s s s s s               s s s s s s s s s s                                                                                           ",
"                                                      s s s s s s s s s s                 s s s s s s s s s s                                                                                           ",
"                                                        u a p p p a s s                   s s s s s s s s d s                                                                                           ",
"                                                          3 e e e e                         v g u u u s s s                                                                                             ",
"                                                  g.g.g.z.e.2 e e                         g.c.*.t t t                                                                                                   ",
"                                                g.g.g.g.z.z.w.q.                          z.g.h.q.q.q.j.g.g.                                                                                            ",
"                                                j.o.#.#.#.%.z.z.g.                          o.w.g.g.g.g.g.g.                                                                                            ",
"                                                  X @ X X # +.j.                            o q q.@.@.@.e.g.g.                                                                                          ",
"                                                  2 2 2 : + &                               X + & & & % 4                                                                                               ",
"                                                c.h.h.h.+.&                               X + X & ; ; -.c.z.                                                                                            ",
"                                              3 9 9 0 0 4 +                               X X + + & e 4 -.t.5.                                                                                          ",
"                                            0 %.&.&.2 @ + X                               S % o X + @ y 6 H H 3   i.                                                                                    ",
"                                          9 ;.g.z.z.&.6 < <                               3.S < < < < 6 7 7 9 9 e.d.t.                                                                                  ",
"                                          z.z.z.z.z.z.p.3.3.                              3.3.3.3.3.1.3.2.r.z.z.g.g.z.                                                                                  "
};
