/* XPM */
static char *baae0ac7c25f431aec428c00f1e9363fqhkUufjWFQx4BiZs[] = {
/* columns rows colors chars-per-pixel */
"100 80 190 2 ",
"   c None",
".  c #1F1E1B",
"X  c #1B1D32",
"o  c #151832",
"O  c #281E34",
"+  c #1E2031",
"@  c #1D2138",
"#  c #2E2E2E",
"$  c #322F2D",
"%  c #36332D",
"&  c #222432",
"*  c #23263C",
"=  c #342C38",
"-  c #382F37",
";  c #2E303F",
":  c #383A3C",
">  c #463E31",
",  c #6D3427",
"<  c #5A4924",
"1  c #564625",
"2  c #42453D",
"3  c #494C3B",
"4  c #47483C",
"5  c #5A5835",
"6  c #535529",
"7  c #64572C",
"8  c #695B31",
"9  c #7C5E36",
"0  c #6A6D33",
"q  c #6F7133",
"w  c #706C2E",
"e  c #282D42",
"r  c #2E3242",
"t  c #323441",
"y  c #353840",
"u  c #3A3241",
"i  c #5C0B49",
"p  c #5F0649",
"a  c #471C45",
"s  c #541447",
"d  c #551248",
"f  c #62074A",
"g  c #65084B",
"h  c #6A094C",
"j  c #680D47",
"k  c #750B4E",
"l  c #7B0D4E",
"z  c #6A1946",
"x  c #7C0D50",
"c  c #740550",
"v  c #492446",
"b  c #522B48",
"n  c #7B2E41",
"m  c #4B4948",
"M  c #6A5E48",
"N  c #9C1D02",
"B  c #9F2104",
"V  c #A32502",
"C  c #A62B08",
"Z  c #AF3101",
"A  c #AF3F1A",
"S  c #8A3926",
"D  c #BE4101",
"F  c #88681B",
"G  c #8D4D39",
"H  c #9C5639",
"J  c #A2522A",
"K  c #936B29",
"L  c #C64B02",
"P  c #CE5301",
"I  c #D15500",
"U  c #D95E00",
"Y  c #DE6400",
"T  c #E06600",
"R  c #E26A00",
"E  c #E47502",
"W  c #E67F02",
"Q  c #E5781A",
"!  c #CD7536",
"~  c #830D52",
"^  c #8D1153",
"/  c #961355",
"(  c #9A1456",
")  c #9A1855",
"_  c #8C1A4F",
"`  c #A11557",
"'  c #A51658",
"]  c #A91759",
"[  c #A71859",
"{  c #A81859",
"}  c #B12C5C",
"|  c #B3305C",
" . c #CC7541",
".. c #E97A52",
"X. c #9A9B1E",
"o. c #B79416",
"O. c #ABAC1D",
"+. c #BEBE19",
"@. c #8D8E20",
"#. c #8C8D2B",
"$. c #969828",
"%. c #969829",
"&. c #938A2C",
"*. c #AA962B",
"=. c #AEAF20",
"-. c #B5B621",
";. c #D68F11",
":. c #E98803",
">. c #ED9502",
",. c #F09E03",
"<. c #CBBF1E",
"1. c #EDA806",
"2. c #F4AA08",
"3. c #F5B304",
"4. c #F7BB05",
"5. c #FBB803",
"6. c #F1B112",
"7. c #EB8C2D",
"8. c #D8BA20",
"9. c #F5BA29",
"0. c #E9BF2F",
"q. c #C4C51C",
"w. c #C9CA1A",
"e. c #D5D618",
"r. c #F9C907",
"t. c #F9CF08",
"y. c #F7C607",
"u. c #FAD609",
"i. c #FBDB09",
"p. c #F6D60A",
"a. c #FDEB0A",
"s. c #FEE60A",
"d. c #FEF40E",
"f. c #FFFF0F",
"g. c #E5E616",
"h. c #E9EA13",
"j. c #F5ED13",
"k. c #FCFB11",
"l. c #FDF31A",
"z. c #F7F611",
"x. c #F7CC31",
"c. c #FCE92C",
"v. c #98835B",
"b. c #BA9961",
"n. c #B79760",
"m. c #D4834B",
"M. c #D98E52",
"N. c #CB985D",
"B. c #DA985A",
"V. c #EB8142",
"C. c #EB875D",
"Z. c #E29D5D",
"A. c #F0AD5F",
"S. c #F3BA52",
"D. c #F2B455",
"F. c #D58D65",
"G. c #ED9B6C",
"H. c #EC9866",
"J. c #EE9F70",
"K. c #CAA76A",
"L. c #DAB674",
"P. c #EFA662",
"I. c #EFA26F",
"U. c #F1A872",
"Y. c #E3BB7A",
"T. c #F4B577",
"R. c #F5BB7B",
"E. c #F3BF76",
"W. c #F3B768",
"Q. c #F7D354",
"!. c #FDE748",
"~. c #FDE848",
"^. c #FDE944",
"/. c #FDE059",
"(. c #EAC27A",
"). c #F7C37D",
"_. c #F9C97E",
"`. c #F9C67A",
"'. c #FCD96C",
"]. c #FBCE81",
"[. c #F7CB80",
"{. c #FFD385",
"}. c #F5DCAF",
"|. c #C8C8C8",
" X c #E7DAC5",
".X c #FCE7C1",
"XX c #EAE1DF",
"oX c #FCEFDA",
"OX c #E4E1E1",
"+X c #FCFEFF",
/* pixels */
"                                                                                                                                                                                                        ",
"                                                                                                                                                                                                        ",
"                                                                                                                                                                                                        ",
"                                                                                                                                                                                                        ",
"                                                                                                                                                                                                        ",
"                                                                                                                                                                                                        ",
"                                                                                        T T T T T T                                                                                                     ",
"                                                                                    R R T T T T T T R                                                                                                   ",
"                                                                                  L P P I T T T T Y I                                                                                                   ",
"                                                                              U Z B N N V I U U U I V                                                                                                   ",
"                                                                            Y Y U Z B V B V V V V V V                                                                                                   ",
"                                                                          Z D Y T I ! Z.B.Z.A N N C M.                                                                                                  ",
"                                                                          N V L T 7.W.{.{.{.B. . .m.].                                                                                                  ",
"                                                                          N N V L A.L.n.b.b.(.{.(.b.b.                                                                                                  ",
"                                                                            N N V Z.v.# # . b.{.b.. $                                                                                                   ",
"                                                                              B B Z.}.OX|.$ b.{.b.$ |.                                                                                                  ",
"                                                                            ).M.C B..X+XOXS B.{.B.S OX                                                                                                  ",
"                                                                          {._.`.m.W..X+XOX, N.{.N., OX                                                                                                  ",
"                                                                            {.[.{.].}.oX XM K.{.K.M  X                                                                                                  ",
"                                                                              [.].].].].{.[.].].].[.].                                                                                                  ",
"                                                                                ].].].].].].].].].].].                                                                                                  ",
"                                                                                U.U.R.].].].].[.].].                                                                                                    ",
"                                                                                G.G.U.T.T.].    ].                                                                                                      ",
"                                                                                D.P.G.G.G.                                                                                                              ",
"                                                                              f.k.S.I.J.G.Q E W                                                                                                         ",
"                                                                      f.k.f.f.f.k./.].[.).`.c.t.3.                                                                                                      ",
"                                                                    f.f.f.f.f.f.k.l./.].].].'.c.s.3.                                                                                                    ",
"                                                                    f.f.f.f.f.k.f.f.!.].].].].!.a.3.3.                                                                                                  ",
"                                                                    f.f.f.f.f.f.a.f.!.].].].].~.a.3.3.                                                                                                  ",
"                                                                    f.f.k.f.f.d.4.s.~.[.[.[.].~.a.3.3.                                                                                                  ",
"                                                                  f.k.f.f.f.k.d.y.a.!.).I.I.R.~.a.5.3.                                                                                                  ",
"                                                                f.k.f.f.f.f.d.r.3.a.!.].R.R.].~.a.3.3.3.                                                                                                ",
"                                                                  f.f.f.k.a.t.4.u.d.!.].].].[.!.d.u.4.3.3.                                                                                              ",
"                                                                f.f.f.f.f.i.3.4.f.f.!.].].].[.!.f.d.4.3.3.                                                                                              ",
"                                                              d.f.f.k.f.f.u.3.y.k.k.c.`.R.R.R.Q.j.f.4.3.3.2.                                                                                            ",
"                                                            3.4.i.f.f.f.  4.y.d.k.k.l.0.} } } } ! d.4.3.>.R R                                                                                           ",
"                                                        f.d.3.3.4.i.f.k.    d.f.f.f.f.8.k k k c H j.4.:.R E 2.3.                                                                                        ",
"                                                      f.f.f.i.i.i.i.i.d.    f.f.f.f.f.<.v a a a 9 d.u.:.E ,.3.3.                                                                                        ",
"                                                        f.f.f.f.f.a.r.    f.f.f.f.f.f.q.y t t r 0 k.f.1.>.3.3.3.                                                                                        ",
"                                                          l.l.l.k.k.f.      f.k.k.f.f.q.y t r r 0 l.f.y.3.3.2.                                                                                          ",
"                                                          P.P.P.x.d.k.    k.f.f.f.f.f.q.: r t r 0 d.f.r.5.7.V.                                                                                          ",
"                                                        R.G.G.G.A.Q.    f.f.f.f.f.f.-.5 t t t r 0 f.f.a.9.7...H.                                                                                        ",
"                                                      _._.T.T.I.G.G.    f.f.f.f.k.k.%.r r r r r 0 f.f.f.9...C.I.                                                                                        ",
"                                                      {.{._.{.T.I.G.    f.f.k.f.k.k.*.v b b b v w f.f.f.x.C.G.G.                                                                                        ",
"                                                      _.{._.{.[.      f.f.f.k.k.f.j.! [ [ [ { ~ G k.f.f.    G.G.G.                                                                                      ",
"                                                      {._.{.[.      f.k.f.k.k.k.f.H _ ] { [ ] ~ G j.f.k.    G.G.G.G.                                                                                    ",
"                                                      _.{._._.    k.f.u.r.r.r.4.H z ~ ] { ] ] ~ z G G G     G.G.G.G.G.                                                                                  ",
"                                                      {._.{.{.    k.d.  3.  ;.J z k / ] { ] ] ( ~ ~ ~ ~     G.G.G.G.G.                                                                                  ",
"                                                      ].{.[.                  k k ( ] ] ] ] ] { ] ] ] ] ]     G.G.G.H.                                                                                  ",
"                                                      Y.Y.Y.                ] ' { ] ] ] ] ` ` ` ` ` ` ] ] ]     F.F.F.F.                                                                                ",
"                                                      m m m y             ] ] ] ] ] ] ] ` k h h h h h ( ] ]     - = = $                                                                                 ",
"                                                      w.w.O.m t         ] ] ] ] ] ] ] ( k f f f f g ^ ' ] ]   X X X > o.                                                                                ",
"                                                      $.$.#.: t t       ] ] ] ] ] { ( x f f f f f h ` ] ] ]   X X X % F                                                                                 ",
"                                                      0 0 0 0 2 r       ] ] ] ] ] ( x f     f f f h ` ] ] ]   O X X $ <                                                                                 ",
"                                                        k.k.z.0       ] ] ] ] ] ` k f       f f f h ` ] ] ] ( O X X < 2.                                                                                ",
"                                                                      ] ] ] ] ( k g           f f h ` ] ] ] ]                                                                                           ",
"                                                                    ] ] ' ] ( k g               f h ` ] ] ] ] ]                                                                                         ",
"                                                                  ] ] ] { ( l g f             f f h ` ] ] ] ] ]                                                                                         ",
"                                                                ] ] ] ] { ~ f f f             f f g ^ ' ] ] ] ]                                                                                         ",
"                                                              ] ] ] ] ] ' ~ f f                 f f g / ] ] ] ]                                                                                         ",
"                                                            ] ] ] ] { { x g f f               f f f g / ] ] ] ]                                                                                         ",
"                                                          ] ] ] ] ] { { k f f               f f f f f / ] ] ] ]                                                                                         ",
"                                                        ] ] ] ] ] ] [ ~ h f f               f g f f f / ] ] ] ]                                                                                         ",
"                                                      ] ] ] ] ] ] ' / g f f f               f f f f g ~ ` ] ]                                                                                           ",
"                                                    ` ` ` { { ] ' ^ g f f f               f f f f f f f ~ ` `                                                                                           ",
"                                                    h h x ' ] ] ^ g f f f                 f f f f f f f g h h                                                                                           ",
"                                                    f f g k k k h f f f f f               f f f f f f f f f f                                                                                           ",
"                                                      f g f f g f g f f f                 f f f f f f f f f f                                                                                           ",
"                                                        i d s s s d f f                   f f f f f f f f f f                                                                                           ",
"                                                          4 t t t t                         n z i i i f f f                                                                                             ",
"                                                  f.f.f.k.e.3 t y                         f.j.&.u u u                                                                                                   ",
"                                                f.f.f.f.f.k.w.q.                          k.f.g.q.q.q.h.f.f.                                                                                            ",
"                                                h.X.@.@.@.$.k.f.f.                          X.w.f.f.f.f.f.f.                                                                                            ",
"                                                  X X @ X # O.h.                            o w q.+.+.+.e.f.f.                                                                                          ",
"                                                  3 3 3 : X &                               + + & & & % 6                                                                                               ",
"                                                z.g.g.g.O.&                               X X X & ; ; =.z.f.                                                                                            ",
"                                              4 0 0 q q 5 +                               X X + + & r 5 O.r.3.                                                                                          ",
"                                            q $.%.%.3 @ + X                               F % o X + @ e 7 K K 2   i.                                                                                    ",
"                                          0 -.f.k.k.%.7 < <                               3.F 1 1 1 < 7 8 8 0 0 e.s.r.                                                                                  ",
"                                          k.k.k.k.k.k.p.3.3.                              3.3.3.3.3.3.3.2.y.k.k.f.f.k.                                                                                  "
};
