/* XPM */
static char *d1924b601d914557f7ecf1805edc2785UWLEZHH22hoAm45y[] = {
/* columns rows colors chars-per-pixel */
"100 80 194 2 ",
"   c None",
".  c gray11",
"X  c #1B1D32",
"o  c #161932",
"O  c #211E32",
"+  c #1F2032",
"@  c #1C2038",
"#  c #2A282B",
"$  c #332D26",
"%  c #34342D",
"&  c #3A3C2C",
"*  c #222431",
"=  c #23263C",
"-  c #2F323D",
";  c #343331",
":  c #30333F",
">  c #6D2F1B",
",  c #411C3B",
"<  c #3D403E",
"1  c #7C601B",
"2  c #46472B",
"3  c #5B4924",
"4  c #524326",
"5  c #4A4C3B",
"6  c #44463C",
"7  c #575A38",
"8  c #565232",
"9  c #64572C",
"0  c #6A5B3F",
"q  c #696C34",
"w  c #676634",
"e  c #6E7033",
"r  c #727430",
"t  c #2A2D42",
"y  c #2F3241",
"u  c #323441",
"i  c #3D3143",
"p  c #363940",
"a  c #383A40",
"s  c #382F43",
"d  c #5D0C49",
"f  c #5E074A",
"g  c #541447",
"h  c #531248",
"j  c #62074A",
"k  c #66084B",
"l  c #6B094C",
"z  c #750B4E",
"x  c #77094F",
"c  c #681846",
"v  c #433442",
"b  c #672F41",
"n  c #752443",
"m  c #48474A",
"M  c #564142",
"N  c #675D54",
"B  c #9C1C01",
"V  c #991700",
"C  c #9F2002",
"Z  c #8A3419",
"A  c #A42502",
"S  c #AB2C00",
"D  c #AF3000",
"F  c #B53801",
"G  c #8C6B1A",
"H  c #A77E14",
"J  c #87443B",
"K  c #B85227",
"L  c #977622",
"P  c #AC722A",
"I  c #CE5200",
"U  c #D25600",
"Y  c #D85E00",
"T  c #C35012",
"R  c #DE6400",
"E  c #E06600",
"W  c #E16900",
"Q  c #E67909",
"!  c #CB733E",
"~  c #E47823",
"^  c #850D51",
"/  c #8C1153",
"(  c #951255",
")  c #9B1A56",
"_  c #950F56",
"`  c #A51658",
"'  c #A91759",
"]  c #952948",
"[  c #AB2853",
"{  c #90564B",
"}  c #877049",
"|  c #AF7041",
" . c #807561",
".. c #CC7542",
"X. c #CF7843",
"o. c #D07943",
"O. c #C9605B",
"+. c #EA7A4D",
"@. c #C14A65",
"#. c #B19018",
"$. c #BDBE19",
"%. c #B3B41A",
"&. c #A1A21D",
"*. c #8D8E20",
"=. c #8A8C2B",
"-. c #8F9020",
";. c #9A9B27",
":. c #979928",
">. c #939425",
",. c #958C2B",
"<. c #B48C2A",
"1. c #AEAF20",
"2. c #B5B621",
"3. c #C5930E",
"4. c #E78001",
"5. c #E98502",
"6. c #F3A904",
"7. c #F5B304",
"8. c #F7BD05",
"9. c #F6B507",
"0. c #EFB208",
"q. c #D9863B",
"w. c #D89730",
"e. c #EE8E33",
"r. c #EF9736",
"t. c #C2B224",
"y. c #C4C61D",
"u. c #CBCC1A",
"i. c #D9DA18",
"p. c #F9CA07",
"a. c #F8C907",
"s. c #FBDC09",
"d. c #F8D709",
"f. c #EECD0C",
"g. c #FCE50B",
"h. c #FCEA0C",
"j. c #FEF40D",
"k. c #FFFF0F",
"l. c #E6E615",
"z. c #EBEB13",
"x. c #ECE516",
"c. c #F1E416",
"v. c #FAE519",
"b. c #FEF511",
"n. c #FDFC11",
"m. c #FBF519",
"M. c #F6CA39",
"N. c #FAD921",
"B. c #FAE622",
"V. c #FEF32C",
"C. c #FEF330",
"Z. c #FDE535",
"A. c #A48957",
"S. c #B99A62",
"D. c #D98E52",
"F. c #ED8E4B",
"G. c #F2B752",
"H. c #F0AB5D",
"J. c #ED9B6C",
"K. c #ED9667",
"L. c #EB8B60",
"P. c #C2A26A",
"I. c #DCB674",
"U. c #EFA464",
"Y. c #EFA568",
"T. c #F2AB73",
"R. c #F0A570",
"E. c #E6BA75",
"W. c #F4B576",
"Q. c #F6BD7B",
"!. c #F5B778",
"~. c #F4B466",
"^. c #F8D445",
"/. c #FDE059",
"(. c #FCDD62",
"). c #FCD86A",
"_. c #F7C07C",
"`. c #FACD7F",
"'. c #F7C87E",
"]. c #FBD374",
"[. c #A5A5A6",
"{. c #CEBCB2",
"}. c #F7CB80",
"|. c #FBCE81",
" X c #FFD284",
".X c #F8D79D",
"XX c #FCDEA6",
"oX c gainsboro",
"OX c #E0DFDE",
"+X c #F9ECD6",
"@X c #FFF3DD",
"#X c #FDFDFD",
"$X c #F8F8F8",
"%X c #E6E6E6",
/* pixels */
"                                                                                                                                                                                                        ",
"                                                                                                                                                                                                        ",
"                                                                                                                                                                                                        ",
"                                                                                                                                                                                                        ",
"                                                                                                                                                                                                        ",
"                                                                                                                                                                                                        ",
"                                                                                                                                                                                                        ",
"                                                                                            E E E E                                                                                                     ",
"                                                                                          E E E E E E                                                                                                   ",
"                                                                                    U Y Y Y R E E E E R                                                                                                 ",
"                                                                                  A A A A A I E R R R F A                                                                                               ",
"                                                                                R U F B B B S S D D S C B                                                                                               ",
"                                                                              W E E U T o.o.X.X.X...X.X.o.                                                                                              ",
"                                                                              U R E ~ w.S.S.S.E. X'.P.S.S.                                                                                              ",
"                                                                              A U R F.P.% ; . } `.E.$ # ;                                                                                               ",
"                                                                              B A I r..XOXoXm }  XI.$ [.%X                                                                                              ",
"                                                                              B B A q.XX#X$X{ |  XE.Z {.#X                                                                                              ",
"                                                                              B B V ..XX$X$X{ |  XE.> {.#X                                                                                              ",
"                                                                                K K D..X+X+X .A.`.E.N {.@X                                                                                              ",
"                                                                              |.`.`.|.|.|. X`.`.`.`.`.]. X                                                                                              ",
"                                                                              |.|.|.|.|.|.|.|.|. X`.`.|.                                                                                                ",
"                                                                                |.|.|.|.|.`.|.|.`. X X                                                                                                  ",
"                                                                                  W.W.Q.|. X|.|.   X                                                                                                    ",
"                                                                                  J.J.R._.Q.}.                                                                                                          ",
"                                                                                  H.Y.J.J.J.                                                                                                            ",
"                                                                                n.b.^.J.J.J.~ R W                                                                                                       ",
"                                                                        k.k.k.k.k.k.^.Q.Q.Q.~.M.p.9.                                                                                                    ",
"                                                                        k.k.n.k.k.k.V./.|.|. X(.Z.d.8.                                                                                                  ",
"                                                                      k.k.k.k.n.k.k.k.V.|.|.|.|.(.b.8.                                                                                                  ",
"                                                                      k.k.k.k.k.k.k.k.V.|.|.|.|.(.j.8.9.                                                                                                ",
"                                                                      k.n.k.k.k.k.p.s.C.`.|.|.|.(.j.8.7.9.                                                                                              ",
"                                                                    k.k.k.k.k.k.k.p.s.C.`.T.T.Q.(.j.8.7.                                                                                                ",
"                                                                    k.k.k.n.k.k.s.8.s.V.`.W.W.Q.(.n.s.8.7.                                                                                              ",
"                                                                    k.k.k.k.k.g.8.a.g.V.|.|.|.|.).V.n.a.7.7.                                                                                            ",
"                                                                    k.k.k.k.g.9.7.h.k.V.].`.|.|. X].m.p.7.7.                                                                                            ",
"                                                                  k.n.k.k.k.h.7.7.h.k.b.V.].}.|.|.].m.p.7.7.9.                                                                                          ",
"                                                              7.a.d.k.k.k.k.  8.g.k.k.k.c.O.@.@.@.O.v.a.7.6.4.W                                                                                         ",
"                                                            k.8.6.8.s.n.k.    s.k.k.k.k.c.] ^ ^ ^ ] c.g.7.4.R 5.6.                                                                                      ",
"                                                          k.k.s.p.p.a.g.k.    k.k.k.k.n.x.b h g h b x.k.0.R 5.7.7.7.                                                                                    ",
"                                                          n.k.n.n.k.j.a.      k.n.k.k.n.l.5 u u u 6 i.m.0.4.9.7.7.                                                                                      ",
"                                                            n.n.n.n.n.k.      n.k.k.k.k.l.5 y y u p 5 u.s.6.7.7.                                                                                        ",
"                                                            G.G.G.M.n.k.      k.k.k.k.k.l.5 y u y y p y.k.s.7.e.                                                                                        ",
"                                                          _.J.J.J.H.M.m.    k.k.k.k.k.k.z.5 y u u u p y.k.s.e.+.L.                                                                                      ",
"                                                          `.W.R.R.J.J.    k.k.k.k.k.k.z.1.m y y u y p ;.l.N.+.L.K.J.                                                                                    ",
"                                                          |.|.|.!.J.J.    n.k.k.k.k.b.t.v v v v i i v i ;.N.F.K.J.J.                                                                                    ",
"                                                          |.|.|.|.}.    k.n.k.n.k.k.w.[ ) ) ) ) ) ) ) l <.n.B.U.J.J.J.                                                                                  ",
"                                                          |.`.|.|.    n.k.g.p.p.a.P ] ' ' ' ' ' ' ' ` x P k.m.U.J.J.J.                                                                                  ",
"                                                          |. X|.|.      k.  6.    ] ( ' ' ' ' ' ' ` ` x J t.B.U.J.J.J.                                                                                  ",
"                                                          |.|.|.                  ' ' ' ' ' ' ' ' ' ' ^ x x   J.J.J.J.J.                                                                                ",
"                                                          |.|.                  ' ' ' ' ' ' ' ' ' ' ' ' ' '     J.J.J.J.                                                                                ",
"                                                          }.`.                  ' ' ' ' ' ' ' ' ' ' ' ' ' ' '     J.J.J.J.                                                                              ",
"                                                          N N m               ' ' ' ' ' ' ' ^ z z z z z / ' '       M M v                                                                               ",
"                                                          ;.;.5 y           ' ' ' ' ' ' ` / l j f f j x ) ' '     X X * G                                                                               ",
"                                                          y.y.7 y u       ' ' ' ' ' ' ` ( k     k k j ( ' ' '   X X X # H                                                                               ",
"                                                          5 5 5 < y       ' ' ' ' ' ' / k     j f j j ( ' ' '   O X X O %                                                                               ",
"                                                          l.z.z.=.y     ' ' ' ' ' ' / k j       k f j ( ' ' ' ' , X X $ 3.                                                                              ",
"                                                                      ' ' ' ' ' ' ^ l j           j k ( ' ' ' '                                                                                         ",
"                                                                    ' ' ' ' ' ` / l j j           j k ( ' ' ' ' '                                                                                       ",
"                                                                    ' ' ' ' ` / k j j j           j k ( ' ' ' ' ' '                                                                                     ",
"                                                                ' ' ' ' ' ' / k j j j             j k ( ' ' ' ' '                                                                                       ",
"                                                              ' ' ' ' ' ' / k j j j             j j j ( ' ' ' '                                                                                         ",
"                                                            ' ' ' ' ' ' ^ l j j j               j j k ( ' ' ' '                                                                                         ",
"                                                          ' ' ' ' ' ` / l j j j j             j j j j ( ' ' ' '                                                                                         ",
"                                                          ' ' ' ' ` / k j j j j             j j j j j ( ' ' ' '                                                                                         ",
"                                                        ` ' ' ' ` / k j j j j j             j j j j j ( ` ' ' '                                                                                         ",
"                                                      k x ' ' ' / k j j j j j               j j j j j k ^ ' ' '                                                                                         ",
"                                                      j k z z z l j j j j j j               j j j j j j l z z z                                                                                         ",
"                                                        j j j j j k j j j j                 j j j j j j j j j j                                                                                         ",
"                                                          f h g g g h j j                   j j j j j j j j j j                                                                                         ",
"                                                            5 a u u u                       n c d d d j d j j                                                                                           ",
"                                                    k.k.k.n.l.q u p                         c.,.p i i : v                                                                                               ",
"                                                  k.k.k.k.k.n.i.y.y.                        k.l.y.y.y.y.i.k.k.                                                                                          ",
"                                                    &.*.*.*.>.l.k.k.                          %.%.k.k.k.k.k.k.k.                                                                                        ",
"                                                    X @ X X X *.i.k.                            2 $.$.$.$.u.k.k.                                                                                        ",
"                                                    5 5 5 6 * O *                             X + * * % & 2                                                                                             ",
"                                                  n.z.l.l.u.; X                             X X X + - 1.x.z.k.                                                                                          ",
"                                              t p w q e q 8 #                               X X X + : 7 1.p.p.7.                                                                                        ",
"                                            r :.:.>.5 = X o X                               G 4 X X = = 3 L ,.f.j.                                                                                      ",
"                                          q 2.k.n.n.:.9 3 3 3                               7.#.3 3 3 9 w q r z.k.g.a.                                                                                  ",
"                                          k.n.k.n.n.j.d.0.7.7.                              7.9.0.0.7.6.d.b.n.n.k.k.k.                                                                                  "
};
