/* XPM */
static char *_31286d76ff041b5f356d39087593f87gWh0Z0v7DGtkkGav[] = {
/* columns rows colors chars-per-pixel */
"100 80 192 2 ",
"   c None",
".  c #1F1E1B",
"X  c #1B1D32",
"o  c #151832",
"O  c #231E33",
"+  c #1E2032",
"@  c #1D2138",
"#  c #2E2E2D",
"$  c #302F2E",
"%  c #3A322C",
"&  c #32332F",
"*  c #222332",
"=  c #23263C",
"-  c #2E303F",
";  c #353738",
":  c #513C3D",
">  c #6D3427",
",  c #5B4924",
"<  c #554526",
"1  c #4A4D3B",
"2  c #44473D",
"3  c #5A5734",
"4  c #515332",
"5  c #64572C",
"6  c #695B31",
"7  c #6A6C33",
"8  c #636535",
"9  c #6F7133",
"0  c #6E702B",
"q  c #2F3441",
"w  c #323441",
"e  c #353840",
"r  c #3A3241",
"t  c #272B41",
"y  c #5C0B49",
"u  c #5E044A",
"i  c #481D45",
"p  c #471C46",
"a  c #541447",
"s  c #551248",
"d  c #62074A",
"f  c #65084B",
"g  c #6A094C",
"h  c #670D47",
"j  c #750B4E",
"k  c #7A0D4E",
"l  c #7D0D50",
"z  c #741848",
"x  c #482644",
"c  c #532C48",
"v  c #512B47",
"b  c #563047",
"n  c #7B2E41",
"m  c #9C1D02",
"M  c #9F2104",
"N  c #A32502",
"B  c #A62B08",
"V  c #AF3101",
"C  c #AF3F1A",
"Z  c #BE4101",
"A  c #87671B",
"S  c #945436",
"D  c #A55334",
"F  c #8F7024",
"G  c #B46721",
"H  c #C64B02",
"J  c #CE5301",
"K  c #D15500",
"L  c #D95E00",
"P  c #DE6400",
"I  c #C1751E",
"U  c #E06600",
"Y  c #E26800",
"T  c #E57701",
"R  c #C3653C",
"E  c #D6762E",
"W  c #E47725",
"Q  c #830E51",
"!  c #8D1153",
"~  c #941255",
"^  c #991356",
"/  c #A11557",
"(  c #A51658",
")  c #A91759",
"_  c #A71859",
"`  c #A91A58",
"'  c #862648",
"]  c #B12C5D",
"[  c #AE334F",
"{  c #BB484A",
"}  c #B2785B",
"|  c #CC7541",
" . c #EA7E50",
".. c #EA7B4C",
"X. c #9A9B1E",
"o. c #BA9719",
"O. c #ABAC1D",
"+. c #BEBE19",
"@. c #8D8E20",
"#. c #979828",
"$. c #949529",
"%. c #938A2C",
"&. c #AEAF20",
"*. c #B5B621",
"=. c #CB9512",
"-. c #EC9603",
";. c #EA8802",
":. c #CBBF1E",
">. c #F3AA05",
",. c #F5B404",
"<. c #F7BB05",
"1. c #FBB803",
"2. c #F3A61A",
"3. c #F1B410",
"4. c #E98727",
"5. c #ED993F",
"6. c #D8B921",
"7. c #E6BC25",
"8. c #C4C51D",
"9. c #CBCA1B",
"0. c #D5D618",
"q. c #FACA06",
"w. c #F9CD09",
"e. c #F7C608",
"r. c #FAD308",
"t. c #FCDB09",
"y. c #FAD409",
"u. c #FDE40A",
"i. c #FDEB0B",
"p. c #FEF50E",
"a. c #FFFF0F",
"s. c #E5E516",
"d. c #E9EA13",
"f. c #EEE315",
"g. c #F6E816",
"h. c #FCFB11",
"j. c #FDF31A",
"k. c #F1F312",
"l. c #F2CC2B",
"z. c #FAE22A",
"x. c #FBE823",
"c. c #FDED35",
"v. c #FDE536",
"b. c #FEF625",
"n. c #98835B",
"m. c #B79760",
"M. c #B99961",
"N. c #BB9D6E",
"B. c #D4834B",
"V. c #D98E52",
"C. c #CB985D",
"Z. c #DE9759",
"A. c #E29D5D",
"S. c #EE9C45",
"D. c #F1AC5C",
"F. c #F3BA52",
"G. c #EFA85E",
"H. c #ED9B6C",
"J. c #EC9565",
"K. c #F19D6D",
"L. c #EE9F70",
"P. c #C0A16F",
"I. c #DAB674",
"U. c #EFA464",
"Y. c #EFA26F",
"T. c #E8A966",
"R. c #F1A973",
"E. c #F0A671",
"W. c #F5BC7B",
"Q. c #F3B774",
"!. c #F3B768",
"~. c #F5C943",
"^. c #FBD85D",
"/. c #FDE749",
"(. c #FDE848",
"). c #FDE847",
"_. c #FDE059",
"`. c #FCDA67",
"'. c #EAC27A",
"]. c #F7C27D",
"[. c #FAC97F",
"{. c #F2C560",
"}. c #FBCE81",
"|. c #FED284",
" X c #F5DCAF",
".X c #C7C7C8",
"XX c #F3DBC3",
"oX c #FCE7C1",
"OX c #E7E0DF",
"+X c #FBEFDA",
"@X c #E2E1E1",
"#X c #FCFEFF",
/* pixels */
"                                                                                                                                                                                                        ",
"                                                                                                                                                                                                        ",
"                                                                                                                                                                                                        ",
"                                                                                                                                                                                                        ",
"                                                                                                                                                                                                        ",
"                                                                                                                                                                                                        ",
"                                                                                        Y P P Y U U                                                                                                     ",
"                                                                                    Y Y Y Y P P U U Y                                                                                                   ",
"                                                                                  H J J J P Y P Y P K                                                                                                   ",
"                                                                              L V M m m N J P L L K N                                                                                                   ",
"                                                                            P P L V M N M B B B N N M                                                                                                   ",
"                                                                          V Z P P K E A.A.C.Z M m B V.                                                                                                  ",
"                                                                          m N H P 4.!.|.|.|.Z.R | B.}.                                                                                                  ",
"                                                                          m m N J G.I.m.M.N.'.|.'.M.M.                                                                                                  ",
"                                                                            m m M J.n.# & . m.|.M.. $                                                                                                   ",
"                                                                              M M A. X@X.X& m.|.M.$ .X                                                                                                  ",
"                                                                            W.V.B Z.oX#X@X& m.|.m.& @X                                                                                                  ",
"                                                                          [.[.[.B.!.XX#X@X> C.|.C.> @X                                                                                                  ",
"                                                                            }.}.|.}. X+XXX| T.|.T.R XX                                                                                                  ",
"                                                                              }.}.}.}.}.}.}.}.}.}.}.}.                                                                                                  ",
"                                                                                }.}.}.}.}.}.}.}.}.}.}.                                                                                                  ",
"                                                                                R.R.W.}.}.}.|.}.[.}.                                                                                                    ",
"                                                                              b.l.U.E.Q.!.S.5.D.                                                                                                        ",
"                                                                              h.h.F.H.H.J.W Y Y                                                                                                         ",
"                                                                      a.a.h.a.a.h.F.E.Y.Y.H.4.-.,.                                                                                                      ",
"                                                                    a.h.a.a.a.a.h.^.[.[.[.[.v.r.,.,.                                                                                                    ",
"                                                                    a.a.a.a.a.a.h.b._.}.}.|.`.v.t.1.,.                                                                                                  ",
"                                                                    a.a.a.a.a.h.a.a./.}.}.[.}.(.i.,.,.                                                                                                  ",
"                                                                    a.h.a.a.a.a.i.a.(.}.}.}.}.(.i.,.,.                                                                                                  ",
"                                                                  a.a.a.h.a.h.i.<.i.(.}.[.}.}.(.i.1.,.                                                                                                  ",
"                                                                a.a.a.a.a.a.i.e.,.i.(.W.H.Y.W.(.i.,.,.,.                                                                                                ",
"                                                                  h.a.a.a.u.e.,.,.i.(.}.].W.[.).a.u.<.1.                                                                                                ",
"                                                                a.a.a.a.a.t.,.,.t.p.(.}.}.}.}.`.v.p.<.,.1.                                                                                              ",
"                                                              u.p.a.a.h.a.r.<.w.p.a.c.`.|.}.}.}.`.h.w.<.>.-.                                                                                            ",
"                                                            ,.,.y.p.h.a.    w.a.a.a.a.z.W.W.W.'.{.g.h.e.;.Y T                                                                                           ",
"                                                        a.p.<.,.<.r.a.a.    p.a.a.a.a.l.] ] ] ] ] { g.-.Y T >.,.                                                                                        ",
"                                                      a.a.a.i.i.i.t.w.      a.h.a.a.a.6.k j j j j ' f.-.T >.,.,.                                                                                        ",
"                                                        a.a.a.a.h.p.t.    a.a.a.a.a.a.:.x i i p i b f.w.,.,.,.,.                                                                                        ",
"                                                          z.z.z.j.a.a.    h.a.a.a.h.a.8.e w q w w 2 *.k.t.>.2.                                                                                          ",
"                                                          U.H.H.~.j.a.      a.a.a.a.a.8.e w w q e w e 8.u.2. .                                                                                          ",
"                                                        ].Y.H.H.U.D.      a.a.a.a.h.a.8.e w w w w w e 8.a.l.B.H.                                                                                        ",
"                                                      |.[.].].Y.H.H.    a.a.h.a.a.a.a.8.e w q w w q w =.i.z.J.H.                                                                                        ",
"                                                      [.[.[.|.].R.      a.a.a.a.a.a.a.8.e q q q q q - o.t.p.~.U.H.                                                                                      ",
"                                                      [.[.|.[.|.        h.a.a.a.a.h.a.9.b c c c c v x =.w.p.j.U.H.H.                                                                                    ",
"                                                      |.}.}.}.          h.h.a.a.a.h.a.7.` _ _ _ _ / j I >.w.z.U.H.H.                                                                                    ",
"                                                      |.}.}.}.          a.a.a.p.h.h.j.7.` ` ) ) _ _ ( z G 3.U.H.H.H.H.                                                                                  ",
"                                                      [.}.}.            a.u.q.<.S S D { ` ) ) ) ) ) ` ^ [     H.H.H.H.                                                                                  ",
"                                                      [.|.|.                =.D h d Q ) ) ) ) ) ) ) ) )         K.K.K.                                                                                  ",
"                                                      P.P.P.                  j j j ~ ) ) ) ) ` ) ) ) ) )       } } } }                                                                                 ",
"                                                      1 1 1 e             ) ) _ _ ) _ ) ) / / / / / / ) ) )     * * * :                                                                                 ",
"                                                      s.s.9.1 w         ) ) ) ) ) ) ) ` / j g g g g g ^ ) )   X X X < =.                                                                                ",
"                                                      7 7 8 e w w       ) ) ) ) ) ) ) ^ j   d d d f ~ ( ) )   X X X # <                                                                                 ",
"                                                      #.#.#.#.1 q       ) ) ) _ ) ) ^ l     d d d g / ) ) )   X X X % A                                                                                 ",
"                                                        a.a.a.7       ) ) ) ) ) ) ^ l u     d d u g / ) ) )   O X X , ,.                                                                                ",
"                                                                    ) ) ) ) ) ` / j         d d d g / ) ) ) )                                                                                           ",
"                                                                    ) ) ) ) ) / j             d d g / ) ) ) )                                                                                           ",
"                                                                  ) ) ) ) ` ^ l                 d g / ) ) ) ) )                                                                                         ",
"                                                                ) ) ) ) ) ~ l d               d d g / ) ) ) ) )                                                                                         ",
"                                                              ) ) ) ) ) ` Q u d               d d g ! _ ) ) ) )                                                                                         ",
"                                                            ) ) ) ) ) ) / Q d                   d d f ~ ) ) ) )                                                                                         ",
"                                                          ) ) ) ) ) ) _ l f d                 d d d d ~ ) ) ) )                                                                                         ",
"                                                        ) ) ) ) ) ) ) _ j d                 d d d d f ~ ) ) ) )                                                                                         ",
"                                                      ) ) ) ) ) _ ) _ ! g                   d d d f d ~ ) ) ) )                                                                                         ",
"                                                    ) ) ) ) ) ) ) ( ! g d d                 d d d d f Q / ) )                                                                                           ",
"                                                    / / / ) ) ) / ! f d d                 d d d d d d d Q / /                                                                                           ",
"                                                    g g l _ _ ) ! g d d                   d d d d d d d h g g                                                                                           ",
"                                                    d d g j j j g d d d                   f d d d d d d d d d                                                                                           ",
"                                                      d d d d d d d f d                   d d d d d d d d d d                                                                                           ",
"                                                        y s a a s s d                     d d d d h d d d d d                                                                                           ",
"                                                          2 e w w w                         n h y y y d d d                                                                                             ",
"                                                  a.a.a.h.0.1 w e                         a.k.%.r r r                                                                                                   ",
"                                                a.a.a.a.a.h.9.8.                          h.a.s.8.8.8.d.a.h.                                                                                            ",
"                                                d.X.@.@.@.#.h.a.a.                          X.8.h.a.a.a.a.a.                                                                                            ",
"                                                  X X @ X # O.d.                            o 0 8.+.+.+.0.a.a.                                                                                          ",
"                                                  1 2 1 ; X *                               X * * + * & 4                                                                                               ",
"                                                h.s.s.s.O.*                               X X X @ q ; &.k.a.                                                                                            ",
"                                              2 7 7 9 9 3 +                               X X + + * w 3 o.w.,.                                                                                          ",
"                                            9 #.$.$.1 = @ X                               A % o X X @ t 3 F F 2   t.                                                                                    ",
"                                          7 *.a.a.a.#.3 , ,                               ,.A < , < , 5 6 6 7 7 0.i.q.                                                                                  ",
"                                          h.a.a.a.a.h.y.,.,.                              ,.,.,.,.,.,.,.,.e.h.h.a.h.a.                                                                                  "
};
