/* XPM */
static char *_28c3d1ed0f2409cfee4bbbaadc2e6ea4QSVU09kzWjubhRH[] = {
/* columns rows colors chars-per-pixel */
"100 80 203 2 ",
"   c None",
".  c gray11",
"X  c #171A32",
"o  c #1B1D32",
"O  c #281D34",
"+  c #1E2031",
"@  c #1D2138",
"#  c #2A292B",
"$  c #342D24",
"%  c #36322C",
"&  c #222432",
"*  c #23263C",
"=  c #2E303F",
"-  c #313130",
";  c #36383F",
":  c #6D2F1B",
">  c #433F3B",
",  c #7E611D",
"<  c #5B4924",
"1  c #524324",
"2  c #46493C",
"3  c #4A4D3B",
"4  c #45453B",
"5  c #585636",
"6  c #4A4C33",
"7  c #665628",
"8  c #695B35",
"9  c #6A6D33",
"0  c #6D6435",
"q  c #6E7132",
"w  c #767930",
"e  c #3A2F43",
"r  c #2E3142",
"t  c #313441",
"y  c #3E3143",
"u  c #272B41",
"i  c #5D0C49",
"p  c #5F0649",
"a  c #541447",
"s  c #521248",
"d  c #62074A",
"f  c #64084A",
"g  c #6A094C",
"h  c #69074C",
"j  c #740C4E",
"k  c #7B0D4F",
"l  c #7E0D50",
"z  c #631347",
"x  c #732743",
"c  c #564142",
"v  c #54504F",
"b  c #685D54",
"n  c #6C5F48",
"m  c #9C1C01",
"M  c #9F2002",
"N  c #8A3419",
"B  c #A22302",
"V  c #AA2B01",
"C  c #AF3000",
"Z  c #B73A01",
"A  c #A83211",
"S  c #AF401A",
"D  c #B84410",
"F  c #89691A",
"G  c #8B483A",
"H  c #B05223",
"J  c #8E6E29",
"K  c #B2643A",
"L  c #C54901",
"P  c #CE5201",
"I  c #D75D00",
"U  c #D95E00",
"Y  c #DD6300",
"T  c #E06600",
"R  c #E16B02",
"E  c #E47501",
"W  c #E2710F",
"Q  c #C96C39",
"!  c #83194E",
"~  c #840D51",
"^  c #830752",
"/  c #8E1254",
"(  c #8B1950",
")  c #941255",
"_  c #9C1456",
"`  c #9B1A56",
"'  c #991556",
"]  c #980F57",
"[  c #A11557",
"{  c #A51658",
"}  c #A91759",
"|  c #AB1C5A",
" . c #B23256",
".. c #90574D",
"X. c #877049",
"o. c #AF7041",
"O. c #817662",
"+. c #C15944",
"@. c #CC7542",
"#. c #CF7843",
"$. c #D07943",
"%. c #E97B54",
"&. c #C14A65",
"*. c #C14461",
"=. c #97981F",
"-. c #BD8D10",
";. c #B69F1C",
":. c #BDBE1B",
">. c #B0B11B",
",. c #A8A91C",
"<. c #8D8E20",
"1. c #9A9C26",
"2. c #979928",
"3. c #989A28",
"4. c #949529",
"5. c #9A8A2E",
"6. c #B0882C",
"7. c #B5B621",
"8. c #A2A426",
"9. c #D18815",
"0. c #E98702",
"q. c #ED9603",
"w. c #F09E03",
"e. c #F19E1E",
"r. c #F5B304",
"t. c #F7BC05",
"y. c #FBB803",
"u. c #E0A508",
"i. c #CA8832",
"p. c #C2862F",
"a. c #EC863B",
"s. c #EC902F",
"d. c #EDAD30",
"f. c #BFC018",
"g. c #C3C41B",
"h. c #CBCC1B",
"j. c #D5D719",
"k. c #F9C907",
"l. c #F9CE08",
"z. c #F7C606",
"x. c #FBDB09",
"c. c #F8D609",
"v. c #E6D918",
"b. c #F3D015",
"n. c #FCEC0C",
"m. c #FEE60A",
"M. c #FDF20E",
"N. c #FFFF0F",
"B. c #E5E515",
"V. c #EAEA14",
"C. c #EAE416",
"Z. c #F3F311",
"A. c #FEF611",
"S. c #F7F811",
"D. c #FEFC11",
"F. c #FFFA1D",
"G. c #FBEF14",
"H. c #F9D935",
"J. c #FCEB22",
"K. c #FFF52A",
"L. c #FEF330",
"P. c #A48957",
"I. c #B99B63",
"U. c #C79451",
"Y. c #EB8D58",
"T. c #E39A58",
"R. c #E09E4B",
"E. c #F3B652",
"W. c #F2B950",
"Q. c #F3BE4B",
"!. c #ED9B6C",
"~. c #E08268",
"^. c #CFAC6E",
"/. c #EFA663",
"(. c #F1AA72",
"). c #F0A671",
"_. c #E6BA75",
"`. c #F4B577",
"'. c #F2BB74",
"]. c #F6BD7B",
"[. c #F4BE6F",
"{. c #F9D150",
"}. c #FDE748",
"|. c #FCDC61",
" X c #F7C07C",
".X c #F8C47D",
"XX c #F6CB7F",
"oX c #FACB7E",
"OX c #F8C472",
"+X c #FCD577",
"@X c #A4A4A5",
"#X c #CEBBB1",
"$X c #FBCE81",
"%X c #F7CB80",
"&X c #FED184",
"*X c gray86",
"=X c #E7DBC5",
"-X c #F9EDD7",
";X c #FDF1DB",
":X c #FBE6C0",
">X c #FEFFFF",
",X c #F8F7F7",
"<X c #E2E3E4",
/* pixels */
"                                                                                                                                                                                                        ",
"                                                                                                                                                                                                        ",
"                                                                                                                                                                                                        ",
"                                                                                                                                                                                                        ",
"                                                                                                                                                                                                        ",
"                                                                                                                                                                                                        ",
"                                                                                                                                                                                                        ",
"                                                                                      Y T R R Y                                                                                                         ",
"                                                                                    T T R Y Y R T                                                                                                       ",
"                                                                                U U I Y Y Y E Y Y U                                                                                                     ",
"                                                                              B B B B Z Y Y Y Y P V                                                                                                     ",
"                                                                            U L B m m B C C C C V m                                                                                                     ",
"                                                                          T T Y L Q $.$.#.@.@.@.#.#.                                                                                                    ",
"                                                                        P I T R W U.I.I.I.XX$X_.I.I.                                                                                                    ",
"                                                                        m Z Y W OXn - # % _.&XX.. -                                                                                                     ",
"                                                                        m B Z W  X=X<X@X$ _.&XX.v *X                                                                                                    ",
"                                                                        m m M D _.;X>X#XN _.&XK ..,X                                                                                                    ",
"                                                                          m m A '.-X>X#X:  X&Xo...,X                                                                                                    ",
"                                                                          Q S A '.:X;X#X8  X&XP.O.-X                                                                                                    ",
"                                                                        $X&X/.S '.&X$X%X%X%X&XoXXX$X                                                                                                    ",
"                                                                        $X$XoX'.%X$X$X$X$X$X$X$X$X$X                                                                                                    ",
"                                                                          $X$X$X&X$X$X$X$X$X$X$X$X                                                                                                      ",
"                                                                            .X`.`..X$X$X$X$X  $X                                                                                                        ",
"                                                                              !.!.'. X.X$X                                                                                                              ",
"                                                                              /.!.!.!./.                                                                                                                ",
"                                                                            D.J./.!.!.Y.R R                                                                                                             ",
"                                                                    D.N.N.D.N.F.OXOX X'.E.b.t.                                                                                                          ",
"                                                                  D.N.N.N.D.D.D.}.+X$X&XoX}.J.k.                                                                                                        ",
"                                                                N.N.N.D.N.N.N.N.D.|.$X$X$XoXL.x.r.                                                                                                      ",
"                                                                  N.N.N.N.N.D.M.D.|.$X$X&XoXL.x.r.r.                                                                                                    ",
"                                                                N.N.N.N.N.N.n.k.A.|.$XoXoXoXL.x.r.r.                                                                                                    ",
"                                                              N.N.N.N.N.N.N.n.t.M.|.].).`.oXL.x.r.r.                                                                                                    ",
"                                                              N.D.N.N.N.N.n.l.t.M.|. X`.`.$XL.n.l.r.r.                                                                                                  ",
"                                                              N.N.N.N.N.M.l.t.l.D.|.$X$X&X$X}.F.n.r.r.                                                                                                  ",
"                                                              N.N.N.N.D.k.r.k.N.D.|.$XoXoX$X$X}.n.r.r.                                                                                                  ",
"                                                            D.N.N.N.N.N.k.r.k.N.N.|.$XoX$XoX%X}.n.y.r.r.                                                                                                ",
"                                                          t.k.M.N.N.N.  r.l.M.D.N.K.R.&.&.&.&.R.n.r.t.0.E Y                                                                                             ",
"                                                        x.r.r.l.n.N.N.  x.n.N.N.N.N.6.^ ~ ~ ~ p.N.l.q.Y E q.                                                                                            ",
"                                                    N.N.n.k.k.k.x.n.N.  N.N.N.N.N.N.6.s a a s J j.n.E E q.t.r.                                                                                          ",
"                                                    N.N.N.N.N.N.x.t.    N.D.N.N.N.N.2.r = ; t r q n.0.w.y.r.r.                                                                                          ",
"                                                      D.D.D.D.N.D.M.    N.N.N.N.N.N.3.r t t t r 9 M.r.y.r.r.                                                                                            ",
"                                                        E.E.E.J.N.N.    D.N.N.N.N.N.3.r t t t r 9 N.n.k.e.a.                                                                                            ",
"                                                      (.!.!.!.Q.J.      N.N.N.N.N.N.3.r t t t r 3 8.M.d.a.%.                                                                                            ",
"                                                    &X].(.(.!.!.      N.N.N.N.N.N.N.3.r r t t ; = 3 C.R.%.Y.!.                                                                                          ",
"                                                    $X$X%X$X(.!.      D.N.D.N.N.N.G.5.y y y y y e 3 C.d.Y.!.!.                                                                                          ",
"                                                    $X$X%X%X%X      D.D.N.N.N.N.D.Q | ` ` ` ` [ ( x v.A.{.!.!.!.                                                                                        ",
"                                                    $X$X$X$X        D.D.N.N.N.M.D.+.} } | } } } ) g G v.H.!.!.!.                                                                                        ",
"                                                    $X$X$X$X        D.x.x.x.b.6.i. .} } } } } } _ ^ h K T.!.!.!.!.                                                                                      ",
"                                                    $X$X$X$X        M.t.9.9.H g _ } } } } } } } | { l ] &.~.!.!.!.!.                                                                                    ",
"                                                    $X$X$X              j z g j [ } } } } } } } } } } } |  .!.!.!.!.                                                                                    ",
"                                                    %X%X$X            | { { _ [ } } } } } } | } } } } } } }   !.!.!.!.                                                                                  ",
"                                                    b b v t           } } } } } } } } ' j j j j j j j ' } }   c c c c                                                                                   ",
"                                                    2.1.w t t       | } } } } } } } ] ~ d d d d d d ~ _ } ) o o X 1 F                                                                                   ",
"                                                    h.h.8.t t       } } } } } } } ' l p     d d d g { } | l O o o 7 9.                                                                                  ",
"                                                    3 3 3 2 t     } } } } } } } [ j         d d d g _ } | ! & O o # %                                                                                   ",
"                                                    V.B.V.j.2     } } } } } } [ j             d d g { } | } ( O o , u.                                                                                  ",
"                                                              ` } } } } } / j j                 d g [ } } } }                                                                                           ",
"                                                              } } } } } ) j p d               d d g [ } } } } }                                                                                         ",
"                                                              } } } } ) g d d d                 d h / { } } } }                                                                                         ",
"                                                            } } } } ' g f d d                 d d d f ) } } } }                                                                                         ",
"                                                          } } } } ' g f d d                 d d d f f ) } } } }                                                                                         ",
"                                                        } } } } ) g d d d d               d d d d h / [ } } }                                                                                           ",
"                                                      } } } } } ~ d d d d                 d d d d g [ | | } |                                                                                           ",
"                                                    } } } } } ' l d d d                   d d d d h / { } } }                                                                                           ",
"                                                    } } } } [ j d d d d                 d d d d d d f / [ } }                                                                                           ",
"                                                  h ) } } [ j d d d d f                 d d d d d d d g g g                                                                                             ",
"                                                  f g j j j d d d d d                   d d d d d d d d d d                                                                                             ",
"                                                    f d d d d d d d                     d d d d d d d d d d                                                                                             ",
"                                                    s a s s s d h f                     d d d d d d d d d d                                                                                             ",
"                                                    5 3 4 t t                             x z i i i d d                                                                                                 ",
"                                                D.D.V.V.7.t                             D.C.0 e y y                                                                                                     ",
"                                              D.N.N.N.N.S.h.S.                          N.N.j.g.g.h.S.N.                                                                                                ",
"                                              h.<.<.<.<.>.N.N.                          B.=.B.N.N.N.N.N.N.                                                                                              ",
"                                                o @ o X 6 :.Z.                            X <.g.f.:.f.B.N.N.                                                                                            ",
"                                                3 2 3 4 - &                               o & & + + &                                                                                                   ",
"                                                B.B.B.B.,.&                               o o o & = ; :.N.N.                                                                                            ",
"                                              4 9 9 9 q 5 +                               o o o @ & r 5 ;.l.y.                                                                                          ",
"                                            q 3.4.<.v * + X                               F % X o o @ u 8 J J >   x.                                                                                    ",
"                                          9 7.N.N.N.2.7 < <                               r.F < < < < 7 7 8 9 q j.m.k.                                                                                  ",
"                                          N.S.N.N.N.S.c.r.r.                              r.r.r.r.r.r.r.r.z.S.S.N.N.N.                                                                                  "
};
