/* XPM */
static char *_95685f3fbce4015de74c3c25d2fdf21BKqNJW0AtnjrR5pJ[] = {
/* columns rows colors chars-per-pixel */
"100 80 197 2 ",
"   c None",
".  c gray11",
"X  c #1B1D32",
"o  c #161932",
"O  c #211E32",
"+  c #1F2032",
"@  c #1C2038",
"#  c #2A282B",
"$  c #332D26",
"%  c #34342D",
"&  c #3A3C2C",
"*  c #222431",
"=  c #23263C",
"-  c #343331",
";  c #34373F",
":  c #2F323D",
">  c #6D2F1B",
",  c #411C3B",
"<  c #7C273C",
"1  c #3D403E",
"2  c #7C601B",
"3  c #46472B",
"4  c #5B4924",
"5  c #524326",
"6  c #4A4C3B",
"7  c #43463A",
"8  c #594A39",
"9  c #575A38",
"0  c #535431",
"q  c #64572C",
"w  c #6A5B3F",
"e  c #7A7D2F",
"r  c #696C34",
"t  c #676634",
"y  c #6E7033",
"u  c #6E7030",
"i  c #2A2E42",
"p  c #3A2E44",
"a  c #2F3241",
"s  c #323441",
"d  c #3D3143",
"f  c #363940",
"g  c #5D0C49",
"h  c #5E074A",
"j  c #541447",
"k  c #531248",
"l  c #62074A",
"z  c #66084B",
"x  c #6B094C",
"c  c #750B4E",
"v  c #770A4F",
"b  c #681846",
"n  c #413141",
"m  c #642C42",
"M  c #762842",
"N  c #48474A",
"B  c #564142",
"V  c #675D54",
"C  c #9C1C01",
"Z  c #991700",
"A  c #9F2002",
"S  c #8A3419",
"D  c #A42502",
"F  c #AB2C00",
"G  c #AF3000",
"H  c #B53801",
"J  c #8C6B1A",
"K  c #A77E14",
"L  c #B85227",
"P  c #977622",
"I  c #CE5200",
"U  c #D25600",
"Y  c #D85E00",
"T  c #C35012",
"R  c #DE6400",
"E  c #E06600",
"W  c #E16900",
"Q  c #E67909",
"!  c #CA6F3F",
"~  c #E47823",
"^  c #840C51",
"/  c #8C1053",
"(  c #941255",
")  c #9B1B56",
"_  c #A51658",
"`  c #A91759",
"'  c #A71858",
"]  c #932849",
"[  c #B23350",
"{  c #90564B",
"}  c #877049",
"|  c #AF7041",
" . c #807561",
".. c #C85E5E",
"X. c #CC7542",
"o. c #CF7843",
"O. c #D07943",
"+. c #C9605B",
"@. c #EA7A4D",
"#. c #C14A65",
"$. c #B19018",
"%. c #BDBE19",
"&. c #B3B41A",
"*. c #A1A21D",
"=. c #8D8E20",
"-. c #8A8C2B",
";. c #8F9020",
":. c #979928",
">. c #969726",
",. c #958C2B",
"<. c #AE832C",
"1. c #AEAF20",
"2. c #B7B422",
"3. c #C98B13",
"4. c #E78001",
"5. c #E98502",
"6. c #F3AD05",
"7. c #F2A403",
"8. c #F5B304",
"9. c #F7BC05",
"0. c #F9B506",
"q. c #D9863B",
"w. c #C49229",
"e. c #EE8E33",
"r. c #EF9736",
"t. c #E7BF23",
"y. c #C4C61D",
"u. c #C9CB1B",
"i. c #DBDC17",
"p. c #CED01B",
"a. c #F9CA06",
"s. c #F8C907",
"d. c #FBDB09",
"f. c #F8D709",
"g. c #E0D01D",
"h. c #EECD0C",
"j. c #FCE50B",
"k. c #FDEA0C",
"l. c #FEF40D",
"z. c #FFFF0F",
"x. c #E6E615",
"c. c #EBEB13",
"v. c #EBE416",
"b. c #F2E515",
"n. c #FBE41A",
"m. c #FEF510",
"M. c #FDFC11",
"N. c #FEF91B",
"B. c #F8F317",
"V. c #F6CA39",
"C. c #F4D528",
"Z. c #F9E422",
"A. c #FEF22E",
"S. c #FEF330",
"D. c #FDE535",
"F. c #A48957",
"G. c #B99A62",
"H. c #D98E52",
"J. c #ED8E4B",
"K. c #F2B752",
"L. c #F0AB5D",
"P. c #ED9B6C",
"I. c #ED9667",
"U. c #EB8B60",
"Y. c #C2A26A",
"T. c #DCB674",
"R. c #EFA464",
"E. c #EFA568",
"W. c #F2AB73",
"Q. c #F0A570",
"!. c #E6BA75",
"~. c #F4B576",
"^. c #F6BD7B",
"/. c #F5B778",
"(. c #F4B466",
"). c #F8D445",
"_. c #FDE059",
"`. c #FCDD62",
"'. c #FCD86A",
"]. c #F7C07C",
"[. c #FACD7F",
"{. c #F7C87E",
"}. c #FBD373",
"|. c #A5A5A6",
" X c #CEBCB2",
".X c #FBCE81",
"XX c #F7CB80",
"oX c #FFD284",
"OX c #F8D79D",
"+X c #FCDEA6",
"@X c gainsboro",
"#X c #E0DFDE",
"$X c #F9ECD6",
"%X c #FFF3DD",
"&X c #FDFDFD",
"*X c #F8F8F8",
"=X c #E6E6E6",
/* pixels */
"                                                                                                                                                                                                        ",
"                                                                                                                                                                                                        ",
"                                                                                                                                                                                                        ",
"                                                                                                                                                                                                        ",
"                                                                                                                                                                                                        ",
"                                                                                                                                                                                                        ",
"                                                                                                                                                                                                        ",
"                                                                                            E E E E                                                                                                     ",
"                                                                                          W E E E E E                                                                                                   ",
"                                                                                    U Y Y Y R E E E E R                                                                                                 ",
"                                                                                  D D D D D I W R R R H D                                                                                               ",
"                                                                                R U H C C C F G G G F A C                                                                                               ",
"                                                                              W E E U T O.O.O.o.X.X.o.o.O.                                                                                              ",
"                                                                              U R E 4.q.G.G.G.T.oX{.Y.G.G.                                                                                              ",
"                                                                              D U R J.Y.; - . } [.!.$ # -                                                                                               ",
"                                                                              C D I r.OX#X@XN } oXT.$ |.=X                                                                                              ",
"                                                                              C A D q.+X&X*X{ | oX!.S  X&X                                                                                              ",
"                                                                              C C Z ! +X&X*X{ | oX!.>  X&X                                                                                              ",
"                                                                                L L H.OX$X$XV G.oX!.V  X%X                                                                                              ",
"                                                                              .X[.[..X.X.XoX[.[.[.[.[.}.oX                                                                                              ",
"                                                                              .X.X.X.X.X.X.X.X.X[.oX.X.X                                                                                                ",
"                                                                                .X.XoX.X.X[..X.XoX[..X                                                                                                  ",
"                                                                                  /.~./..XoX.X.X  .X                                                                                                    ",
"                                                                                  P.P.Q.^.^..X                                                                                                          ",
"                                                                                  L.R.P.P.P.                                                                                                            ",
"                                                                                z.M.).P.P.P.~ E W                                                                                                       ",
"                                                                        z.z.z.z.z.z.).^.^.^.(.V.s.0.                                                                                                    ",
"                                                                        z.z.M.z.z.z.A._..X.X.X'.D.f.9.                                                                                                  ",
"                                                                      z.z.z.M.z.z.z.z.A..X.X.X.X`.m.s.                                                                                                  ",
"                                                                      z.z.z.z.z.z.z.z.A..X.X.X.X`.l.9.8.                                                                                                ",
"                                                                      z.z.M.z.z.z.a.d.S..X.X.X.X`.m.9.8.0.                                                                                              ",
"                                                                    z.z.z.z.z.z.z.a.d.A.[.W.Q.^.`.l.9.8.                                                                                                ",
"                                                                    z.z.z.z.z.z.d.9.d.A.[./.~.].`.z.d.9.0.                                                                                              ",
"                                                                    z.z.z.M.z.j.0.s.j.A.[.[..X.X'.A.M.s.8.8.                                                                                            ",
"                                                                    z.z.z.z.j.0.8.k.z.A.[.oX[..X.X}.N.s.8.8.                                                                                            ",
"                                                                  z.M.z.z.z.k.8.8.j.z.A.[.[.[.[..X}.N.s.8.8.0.                                                                                          ",
"                                                              0.s.f.z.z.z.z.  9.j.z.z.N.D...#.#.#...n.a.9.7.Q W                                                                                         ",
"                                                            z.9.6.9.d.M.z.    d.z.z.z.z.v.] ^ ^ ^ ] b.k.8.4.W 5.7.                                                                                      ",
"                                                          z.M.d.s.s.s.j.z.    M.z.z.M.M.v.m k k k m 2.c.8.R 5.8.0.8.                                                                                    ",
"                                                          z.z.M.z.z.l.s.      z.z.z.z.M.v.6 a s s s f y.9.Q 8.8.8.                                                                                      ",
"                                                            M.M.m.M.M.m.      z.z.z.z.z.x.6 s s s s ; y.d.6.0.0.                                                                                        ",
"                                                            K.K.K.V.z.M.      z.M.z.z.z.x.6 a s s s f y.z.d.6.e.                                                                                        ",
"                                                          ].P.P.P.L.V.N.    z.z.M.z.z.z.x.6 a s s s f e p.n.e.@.U.                                                                                      ",
"                                                          [.~.Q.Q.P.P.    z.z.z.z.z.z.z.x.6 a s s s : : >.C.@.J.I.P.                                                                                    ",
"                                                          .X.X.X/.P.P.    M.z.M.z.z.z.l.g.8 d n n d d p :.Z.J.I.P.P.                                                                                    ",
"                                                          .X.X.XXXXX    M.M.z.z.z.z.z.t.[ ) ) ) ) ) ) x <.m.Z.R.P.P.P.                                                                                  ",
"                                                          .X.X.X.X      z.z.z.z.z.z.z.t.` ` ` ` ` ` ` v M <.B.L.P.P.P.                                                                                  ",
"                                                          .X.X.X.X      z.k.f.d.f.w.w.! ` ` ` ` ` ` ` / v M Z.E.P.P.P.                                                                                  ",
"                                                          .X.X.X        M.f.8.6.3.< ^ ` ` ` ` ` ` ` ` ` ( c   P.P.P.P.P.                                                                                ",
"                                                          .X.X                  c z / ` ` ` ` ` ` ` ` ` ` `     P.P.P.P.                                                                                ",
"                                                          .X.X                ` _ ( _ ' ` ` ` ` _ _ ` ` ` ` `     P.P.P.P.                                                                              ",
"                                                          V V N               ` ` ` ` ` ` ` ^ c v v v v / ` `       B B n                                                                               ",
"                                                          :.:.6 s           ` ` ` ` ` ` _ / x l l l l v ) ` `     X o # J                                                                               ",
"                                                          u.y.9 a s       ` ` ` ` ` ` ` ( z     l l z ( ` ` `   X X X # K                                                                               ",
"                                                          6 6 6 1 a       ` ` ` ` ` ` / z     l l l l ( ` ` `   O X X + %                                                                               ",
"                                                          x.c.c.-.a     ` ` ` ` ` ` / z l       l l l ( ` ` ` ` , X X % 3.                                                                              ",
"                                                                      ` ` ` ` ` ` ^ x l           l z ( ` ` ` `                                                                                         ",
"                                                                    ` ` ` ` ` _ / x l l           l l ( ` ` ` ` `                                                                                       ",
"                                                                    ` ` ` ` _ / z l l l           l z ( ` ` ` ` ` `                                                                                     ",
"                                                                ` ` ` ` ` ` / z l l l             l z ( ` ` ` ` `                                                                                       ",
"                                                              ` ` ` ` ` ` / z l l l             l l z ( ` ` ` `                                                                                         ",
"                                                            ` ` ` ` ` ` ^ x l l l               l l l ( ` ` ` `                                                                                         ",
"                                                          ` ` ` ` ` _ / x l l l l             l l l z ( ` ` ` `                                                                                         ",
"                                                          ` ` ` ` _ / z l l l l             l l l l l ( ` ` ` `                                                                                         ",
"                                                        _ ` ` ` _ / z l l l l l             l l l l l ( _ ` ` `                                                                                         ",
"                                                      z v ` ` ` / z l l l l l               l l l l l z ^ ` ` `                                                                                         ",
"                                                      l z c c c x l l l l l l               l l l l l l x c c c                                                                                         ",
"                                                        l l l l l l l l l l                 l l l l l l l l l l                                                                                         ",
"                                                          h k k k k j l l                   l l l l l l l l l l                                                                                         ",
"                                                            6 f s s s                       M b g g g h g l l                                                                                           ",
"                                                    z.z.z.M.c.t s f                         b.,.s d d s n                                                                                               ",
"                                                  z.z.z.z.z.M.i.y.y.                        z.x.u.y.y.u.i.z.z.                                                                                          ",
"                                                    *.=.=.=.>.x.z.z.                          &.&.z.z.z.z.z.z.z.                                                                                        ",
"                                                    X @ X X X =.i.z.                            3 %.%.%.%.u.z.z.                                                                                        ",
"                                                    6 6 6 7 * X *                             X + + * % & 3                                                                                             ",
"                                                  M.c.x.x.u.- X                             X X X + : 1.x.c.z.                                                                                          ",
"                                              a s t r r r 0 #                               X X + + a 9 1.a.a.0.                                                                                        ",
"                                            y :.:.:.6 = X o X                               J 5 o X @ i 8 P P h.l.                                                                                      ",
"                                          r 2.z.M.M.>.q 4 4 4                               8.$.4 4 4 q t r e c.z.j.s.                                                                                  ",
"                                          M.z.z.z.M.M.f.6.8.8.                              6.0.6.8.6.8.f.l.z.z.z.z.z.                                                                                  "
};
