/* XPM */
static char *_2ae783b6eeb4cfbd4039dccde6bd96bXYiQVz3s0yyWxN79[] = {
/* columns rows colors chars-per-pixel */
"45 45 196 2 ",
"   c None",
".  c #099AFF",
"X  c #099BFF",
"o  c #0A9BFF",
"O  c #0B9BFF",
"+  c #0C9CFF",
"@  c #0D9CFF",
"#  c #0E9DFF",
"$  c #0F9DFF",
"%  c #109DFF",
"&  c #119DFF",
"*  c #129DFF",
"=  c #139DFF",
"-  c #119EFF",
";  c #129EFF",
":  c #139EFF",
">  c #149EFF",
",  c #159EFF",
"<  c #149FFF",
"1  c #169FFF",
"2  c #179FFF",
"3  c #199FFF",
"4  c #17A0FF",
"5  c #18A0FF",
"6  c #19A0FF",
"7  c #1AA0FF",
"8  c #1AA1FF",
"9  c #1BA1FF",
"0  c #1CA1FF",
"q  c #1CA2FF",
"w  c #1DA2FF",
"e  c #1EA2FF",
"r  c #1FA2FF",
"t  c #1FA3FF",
"y  c #20A3FF",
"u  c #21A4FF",
"i  c #22A4FF",
"p  c #23A4FF",
"a  c #24A5FF",
"s  c #25A5FF",
"d  c #26A5FF",
"f  c #26A6FF",
"g  c #27A6FF",
"h  c #28A6FF",
"j  c #28A7FF",
"k  c #29A7FF",
"l  c #2AA7FF",
"z  c #2BA8FF",
"x  c #2CA8FF",
"c  c #2DA8FF",
"v  c #2DA9FF",
"b  c #2EA9FF",
"n  c #2FA9FF",
"m  c #2FAAFF",
"M  c #30AAFF",
"N  c #32AAFF",
"B  c #32ABFF",
"V  c #34ABFF",
"C  c #35ACFF",
"Z  c #36ACFF",
"A  c #37ADFF",
"S  c #38ADFF",
"D  c #39ADFF",
"F  c #39AEFF",
"G  c #3AAEFF",
"H  c #3BAEFF",
"J  c #3CAFFF",
"K  c #3DAFFF",
"L  c #3EB0FF",
"P  c #3FB0FF",
"I  c #40B0FF",
"U  c #41B1FF",
"Y  c #43B2FF",
"T  c #44B2FF",
"R  c #45B2FF",
"E  c #45B3FF",
"W  c #46B3FF",
"Q  c #47B3FF",
"!  c #49B4FF",
"~  c #4CB5FF",
"^  c #4EB6FF",
"/  c #4FB6FF",
"(  c #4FB7FF",
")  c #50B7FF",
"_  c #51B7FF",
"`  c #52B8FF",
"'  c #53B8FF",
"]  c #54B9FF",
"[  c #55B9FF",
"{  c #56BAFF",
"}  c #57BAFF",
"|  c #58BAFF",
" . c #59BBFF",
".. c #5ABBFF",
"X. c #5BBCFF",
"o. c #5DBCFF",
"O. c #5DBDFF",
"+. c #5EBDFF",
"@. c #5FBDFF",
"#. c #60BEFF",
"$. c #61BEFF",
"%. c #62BEFF",
"&. c #62BFFF",
"*. c #64BFFF",
"=. c #67C0FF",
"-. c #68C1FF",
";. c #6BC2FF",
":. c #6CC2FF",
">. c #6CC3FF",
",. c #6EC3FF",
"<. c #6FC4FF",
"1. c #70C4FF",
"2. c #73C5FF",
"3. c #74C6FF",
"4. c #75C6FF",
"5. c #76C7FF",
"6. c #77C7FF",
"7. c #78C7FF",
"8. c #7BC9FF",
"9. c #7DCAFF",
"0. c #7ECAFF",
"q. c #7FCAFF",
"w. c #80CBFF",
"e. c #81CBFF",
"r. c #83CCFF",
"t. c #87CEFF",
"y. c #88CEFF",
"u. c #89CEFF",
"i. c #8ACFFF",
"p. c #8DD0FF",
"a. c #8ED0FF",
"s. c #8ED1FF",
"d. c #93D2FF",
"f. c #93D3FF",
"g. c #95D3FF",
"h. c #96D4FF",
"j. c #97D4FF",
"k. c #9BD6FF",
"l. c #9CD6FF",
"z. c #9DD7FF",
"x. c #9ED7FF",
"c. c #A0D8FF",
"v. c #A1D8FF",
"b. c #A2D9FF",
"n. c #A6DBFF",
"m. c #A9DCFF",
"M. c #AADCFF",
"N. c #ACDDFF",
"B. c #ADDDFF",
"V. c #AEDEFF",
"C. c #B0DFFF",
"Z. c #B1DFFF",
"A. c #B2DFFF",
"S. c #B2E0FF",
"D. c #B3E0FF",
"F. c #B4E0FF",
"G. c #B5E1FF",
"H. c #B7E2FF",
"J. c #B8E2FF",
"K. c #BAE2FF",
"L. c #BAE3FF",
"P. c #BCE3FF",
"I. c #BCE4FF",
"U. c #BDE4FF",
"Y. c #C1E5FF",
"T. c #C1E6FF",
"R. c #C2E6FF",
"E. c #C3E6FF",
"W. c #C6E8FF",
"Q. c #C7E8FF",
"!. c #C8E8FF",
"~. c #C9E9FF",
"^. c #CAE9FF",
"/. c #CCEAFF",
"(. c #CDEAFF",
"). c #CDEBFF",
"_. c #CEEBFF",
"`. c #CFEBFF",
"'. c #D1ECFF",
"]. c #D2ECFF",
"[. c #D5EEFF",
"{. c #D8EFFF",
"}. c #D9F0FF",
"|. c #DAF0FF",
" X c #DBF0FF",
".X c #DCF1FF",
"XX c #DDF1FF",
"oX c #DEF2FF",
"OX c #DFF2FF",
"+X c #E1F3FF",
"@X c #E2F3FF",
"#X c #E3F3FF",
"$X c #E4F4FF",
"%X c #E6F4FF",
"&X c #E6F5FF",
"*X c #E7F5FF",
/* pixels */
"                                                                                          ",
"                                                                                          ",
"                                                                                          ",
"                                                                                          ",
"                                                                                          ",
"                                                                                          ",
"                                                                                          ",
"                                                                                          ",
"                                                                                          ",
"                                                                                          ",
"                                                                                          ",
"                                          % % % % $ $                                     ",
"                                    % 1 4 7 7 0 7 7 4 % $ o                               ",
"                                  4 7 0 d h x x x h u 0 1 % $                             ",
"                                4 t d m S P E E U P C z u 7 % +                           ",
"                              1 t z C E ) ..O.O.O.] ~ P N d 7 % $                         ",
"                            % t z S ~ O.;.7.q.e.q.2.=.] E N d 3 & o                       ",
"                            7 d C ~ #.8.u.h.l.b.l.f.r.<.X.E N 0 1 +                       ",
"                          4 u N E O.5.s.b.A.J.J.J.V.z.t.<.` P j 3 & o                     ",
"                          4 d S ) >.u.b.H.!.'.'.).E.S.k.q.=.! x i % +                     ",
"                          7 z P ..7.j.A.Q.[.XX#X}.'.E.m.p.>.~ C i 1 o                     ",
"                          t x E #.q.l.J.'.XX$X%X%X}.!.A.f.5.] J d 1 +                     ",
"                          t x E #.e.c.P.'.XX*X*X%X}.(.H.h.5...S d 1 $                     ",
"                          t x Y #.q.l.J.(.{.#X$X#X}.Q.A.g.5.] S d 1 +                     ",
"                          7 z P ] 5.f.V.E.'.}.}.[.).U.n.p.;.~ C d 1 $                     ",
"                          4 d C ~ ;.e.l.A.E.!.!.!.U.m.h.8.O.E x 0 % o                     ",
"                            0 x U ..1.u.k.m.A.H.S.n.h.q.;.` S h 7 %                       ",
"                            7 d V Q O.>.e.s.h.h.f.u.8.;.` U x 0 % $                       ",
"                              0 h V Q ] =.<.5.5.5.>.O.^ P x u 7 %                         ",
"                                0 h N U ! ` ] X.] ~ E L x u 7 %                           ",
"                                  7 u x B C P P S C x d t 4 %                             ",
"                                    7 0 t d d d d d t 7 4 $                               ",
"                                        1 4 7 7 4 1 % %                                   ",
"                                                                                          ",
"                                                                                          ",
"                                                                                          ",
"                                                                                          ",
"                                                                                          ",
"                                                                                          ",
"                                                                                          ",
"                                                                                          ",
"                                                                                          ",
"                                                                                          ",
"                                                                                          ",
"                                                                                          "
};
