/* XPM */
static char *_b7a32eef6b44627ca9986245024501dF3ll8NYiQugTE1wv[] = {
/* columns rows colors chars-per-pixel */
"100 100 42 1 ",
"  c None",
". c #0C9CFF",
"X c #139EFF",
"o c #189FFF",
"O c #17A0FF",
"+ c #1CA1FF",
"@ c #23A5FF",
"# c #29A7FF",
"$ c #2DA9FF",
"% c #33ABFF",
"& c #3BAEFF",
"* c #3FB0FF",
"= c #43B2FF",
"- c #4BB5FF",
"; c #50B7FF",
": c #54B9FF",
"> c #5BBCFF",
", c #62BEFF",
"< c #66C0FF",
"1 c #6CC2FF",
"2 c #74C6FF",
"3 c #78C7FF",
"4 c #7CC9FF",
"5 c #83CCFF",
"6 c #8ACFFF",
"7 c #8ED1FF",
"8 c #94D3FF",
"9 c #9BD6FF",
"0 c #9FD8FF",
"q c #A3D9FF",
"w c #ABDDFF",
"e c #B1DFFF",
"r c #B5E1FF",
"t c #BBE3FF",
"y c #C2E6FF",
"u c #C7E8FF",
"i c #CCEAFF",
"p c #D4EDFF",
"a c #D8EFFF",
"s c #DDF1FF",
"d c #E4F4FF",
"f c #E8F6FF",
/* pixels */
"                                                                                                    ",
"                                                                                                    ",
"                                                                                                    ",
"                                                                                                    ",
"                                                                                                    ",
"                                                                                                    ",
"                                                                                                    ",
"                                                                                                    ",
"                                                                                                    ",
"                                                                                                    ",
"                                                                                                    ",
"                                                                                                    ",
"                                                                                                    ",
"                                                                                                    ",
"                                                                                                    ",
"                                                                                                    ",
"                                                                                                    ",
"                                                                                                    ",
"                                                                                                    ",
"                                                                                                    ",
"                                                                                                    ",
"                                                                                                    ",
"                                                                                                    ",
"                                                                                                    ",
"                                                   ....                                             ",
"                                              ..X.X.XX.XX...                                        ",
"                                           .X.XXXXXOXXXXXX.....                                     ",
"                                         .XXXO+OO++O+++oXOOXXX...                                   ",
"                                        .OXO+++@++@@@++++oooOXX....                                 ",
"                                      XXO+++++@@@##@#@#@@@@+++XXXX..                                ",
"                                     XX++++@@#$$$%%$%$%$$#@@@++oXXX...                              ",
"                                    XXO++@##$%%%%&&&&&&%%%%$@@@++XX....                             ",
"                                   X++++@#$%%*&==========*%%%##@+oooX...                            ",
"                                  XX++@#$$%*==--;;:::;;;-==*&%$##+ooXX...                           ",
"                                 Xo++@#$%&==-;:>>,<><>>>:;;-=*%%##@oXXX..                           ",
"                                 X++##$%*=-;:>,<1112211<<<>;-=*&%##+ooXX..                          ",
"                                O+++#%%*=;:><<123334443321<<>;-=&$$#@oXX...                         ",
"                               XO+@#$%*=-:,<2345677777674321<>;-=&$#@+oXX..                         ",
"                               X++##%*=;:<<235778999098887532<>:-=&$#@ooXX..                        ",
"                              Xo+@#$&=;:<<3477890qqwwqqq9876321>;==&$@@oX...                        ",
"                              X++#$%==:,<35789qwwrrrrrrwqq98631<>-=&%#@oXX...                       ",
"                              X+@#%*=;><24680qwrtttyyytrrwq08632,>-=&$#+oXX..                       ",
"                             X++@$%=-:<13689qrtyuuuiiuiytrrq9763,,:=&%#@oXX..                       ",
"                             X+@#$&=;><3579qeryuiippppiiuyrwq8742,>-&%$@+oX..                       ",
"                             O+@#%*=:<1468qwrtuiaaaasaaiiitrw0853,,;=&$@@oX...                      ",
"                             ++@$%*-:<2479wrtuipassssssapiutrq8741,:=&%#@oXX..                      ",
"                             +@@$%=;><358qwruipassddddssapiyrw0752,:-&%$@oXX..                      ",
"                             ++#%&=;>1368qetuipsdddfdfdsspiytw0853,:-=%$@oX...                      ",
"                            X++@%&=;,1369qetypaasdfffdddspiuteq852<>-=%$@+XX..                      ",
"                            Xo@#$&-;>1469weyupaddffffdddsaputrq8631>-=%$@+XX..                      ",
"                            X++#%&-;,1368qeyupassddfdfddsaputeq852,>-&%$@+XX..                      ",
"                             +@#$&=;>1268qetyipsddfdffdsaaiytwq863,>-=%$@oXX..                      ",
"                             o@@$&=-><368qwtyipasddddddsspiytw0852,>-&%#@oXX..                      ",
"                             o+@$%=->,2689wetuppssdssssapiutrq8742,:-&%#@oX...                      ",
"                             o+@#%=->,2468qetyuppssassapiuttwq8631>;=&$#@oXX..                      ",
"                             o+@#%&=;><3589wrtyuuppppppiuutrq9753,>-=%$@+oXX.                       ",
"                             Xo@@$%=->,1478qwrtyuuiiiiuyytrw98631,:-&%#@+XX..                       ",
"                              o+@$%&-;,<2578qqerttuyuyytrrqq8732<>-=&%@@+X...                       ",
"                              X+@#%&=-:,13578qqwrrttttrrwq98752<>;-&%$@+oXX.                        ",
"                               o+@#%*=;><135789qqwwwwwwq098643<<:-=%$@@+XX..                        ",
"                               o+@#$%==;><1346789000q09887642<<:-=&%#@+oXX..                        ",
"                                o+@#%%=-;><12357777878765432<<>-=&&$#++XX..                         ",
"                                X++@#%&*=;>,<13345555454321<>:-==%$@@+XXX.                          ",
"                                 X+@@$%%==-:>,<<12222221<<>>;-=*%$#@+oXX..                          ",
"                                  o+@@#%%*=--:>,,<<<<<,>>::;==*%##@++XX..                           ",
"                                  Xo+@##%%&*=--;::>::>::;-==*%%$#@+OXXX.                            ",
"                                   Xo++@#$%%&*===------==**&%$#@+++OXX.                             ",
"                                    Xo++@@#$%%%&****&*=&&%%$$#@@++O...                              ",
"                                      o+++@@$$$%%%%%%%%%%$##@+++OXX..                               ",
"                                       Xo+++@@@#####$$#@#@@+++OOXX..                                ",
"                                        XXo+++@+@@@@@@@@+++++OO.X.                                  ",
"                                          XXOX++++++++++OOOOXXX..                                   ",
"                                            XXXXOOOOOOXOXXXX.X                                      ",
"                                                .OO.XXXX...                                         ",
"                                                                                                    ",
"                                                                                                    ",
"                                                                                                    ",
"                                                                                                    ",
"                                                                                                    ",
"                                                                                                    ",
"                                                                                                    ",
"                                                                                                    ",
"                                                                                                    ",
"                                                                                                    ",
"                                                                                                    ",
"                                                                                                    ",
"                                                                                                    ",
"                                                                                                    ",
"                                                                                                    ",
"                                                                                                    ",
"                                                                                                    ",
"                                                                                                    ",
"                                                                                                    ",
"                                                                                                    ",
"                                                                                                    ",
"                                                                                                    ",
"                                                                                                    ",
"                                                                                                    ",
"                                                                                                    ",
"                                                                                                    "
};
