/* XPM */
static char *_a58422cff34492f96299190b77a837bE0nAmJFXutW7auRg[] = {
/* columns rows colors chars-per-pixel */
"76 67 17 1 ",
"  c None",
". c black",
"X c #282828",
"o c gray20",
"O c #663333",
"+ c #666633",
"@ c #663366",
"# c #434343",
"$ c #505050",
"% c gray40",
"& c gray47",
"* c #993333",
"= c #996633",
"- c #993366",
"; c #996666",
": c #FFCC33",
"> c #FFFFCC",
/* pixels */
"         ..                                                                 ",
"         .#                                                                 ",
"         .#.                                                                ",
"         ..#.                                                               ",
"          .####..                                                           ",
"           .#####.                                                          ",
"           .######.                                                         ",
"           #######.                                                         ",
"         ..##.#####.                                                        ",
"         .###.#####&                                                        ",
"         ###..#####.&.                                   .                  ",
"        .##.&.#..##.&&                                   ..                 ",
"       .###&&.#&&###.&.                                  ..                 ",
"       ###.&&.#&&.##..&.                                 ...                ",
"      .##.&&..#&&.###.&..                                .#.                ",
"      ###.&&.##&&&.###&&.                                .#.                ",
"     .##.&&&.##&&&&###.&&&                                ###..             ",
"     .##.&&&.#.&&&&###.&&&                                #####             ",
"    ..#.&&&&.#.&&&&.###&&&.        ...                   .#####.            ",
"    .##.&&&&.#.&&&&&###.&&..      ..#.                  .######.            ",
"    .##&&&&&.#.&&o.&.##..&&.     .$##$                 .#######..           ",
"   .##.&&&&&.#.&.o.&&.##.&&&.  ..$$###.              ..###..##..#.          ",
"   .##.&&&&&.#...o#&&.###&&&.. .$$####.              .####..##..#.          ",
"   .##&&&&&&##&.###.&&###.&&&..$$.$##$.             .####.&.##.&.#.         ",
"   ##.&&&&&&##&.#$.$.&.###.&&.$$.O$#O$.           ..#####&&.##.&....        ",
"  .##.&&&&&&##&.$$@%.&.###.&&.$..%O$$$.           .####..&&.##.&&.#.        ",
"  .#.&&&&&&&##&.++@.#..####....$#O$*$%.          .####.&&&&.##.&&&##        ",
" ..#.&&&&&&&##&$@$$.#o&......$.$%$$$;O.         .####.&&&&&.##.&&&##.       ",
" ..#.&&&&&&&##&;#$@$#o.&%%%%.$#$%;$...         .####.&&&&&&.##.&&&...       ",
" .##&&&&&&&&##&.=%$=..&&%%%%%%$$;;;$         ..###..&&&&&&.##..&&&&.#       ",
" .##&&&&&&&&##&.%+-;.&&%%%%%$$;;O$$;        .#####.&&&&&&&.##.&&&&&.#       ",
" ##.&&&&&&&&##&..;+..%&&%%...%$$;;@;       .#####.&&&&&&&&.##.&&&&&&#.      ",
" ##.&&&&&&&&##&&&;;%.::%&.:::.%O;$;%      .####..&&&&&&&&&###.&&&&&&.#.     ",
".##.&&&&&&&&##&&&..;.::..::::.$$#;$..    .#####&&&&&&&&&&&###&&&&&&&.#.     ",
".##&&&&&&&&&##&&&&&..:.:..:::.$%$;.##$...####..&&&&&&&&&&&###&&&&&&&&#.     ",
".##&&&&&&&&&##&&&&&..:.:..:::.$$$$#$$#$.#####.&&&&&&&&&&&&###&&&&&&&&##     ",
".#.&&&&&&&&&.#&&&&&&...........$$$$$$#.#####.&&&&&&&&&&&&.##.&&&&&&&&.#.    ",
".#.&&&&&&&&&.#&&&&&..X.##.oXXoo%$$$#.#####..&&&&&&&&&&&&&.##.&&&&&&&&&..    ",
".#.&&&&&&&&&.#&&&&&.o#o..ooo#oo.$$#$######.&&&&&&&&&&&&&&###.&&&&&&&&&..    ",
"##.&&&&&.....#&..  ##$$$###$$##.$$$$#####.&&&&&&&&&&&&&&&###.&&&&&&&&&.#    ",
"#..&&&.     ..     .%%%..%%%%%.$$$$$####.&&&&&&&&&&&&&&&&###.&&&&&&&&&&#.   ",
"#..&&.       .      ...%%.&%%.%$$$$####..&&&&&&&&&&&&&&&&###&&&&&&&&&&&#.   ",
"#.&&.              .>>###.>.ooo$$$$####.&&&&&........&&&&###&&&&&&&&&&&..   ",
"#.&&                >>ooo.>.XX.$$$#$$#####&&.oooX.   ....##.&&&&&&&&&&&..   ",
"#.&.                .>.....%%%%$$$$$$####o#o#oooo.      .##.&&&&&&&&&&&.#.  ",
"#.&                  . ..%.$$%%$$$$$#$###ooooooooo      .##.&&&&&&&&&&&&#.  ",
"##.                      %%%%$$$$$$########o#oooXX      .##.&&&&&&&&&&&&#.  ",
".#.                       .$%$$$..$#######o#oooXo.     .##.&&&&&&&&&&&&&##  ",
".#.                        ....$$$$##$####oo#oooo      .##.&&&&&&&&&&&&&.#  ",
".#.                         .%%%$$$$$######oooooX      .##.&&&&&&&&&&&&&.#. ",
" .                           .%$$$$#$#####o#ooXo.      ###.&&&&&&&&&&&&&&.. ",
" .                            .%$$$$#$#####o.Xoo.      ###&&&&&&&&&&&&&&&.. ",
"                                ...########..oo.       ##.&&&&&&&&&&&&&&&.. ",
"                                    .....   .oo..      ##.&&&&&&&&&&&&&&&...",
"                                      .o.   .ooo.      ##.&&&&&&&&&&&&&&&.#.",
"                                     .o#.    o##..$$. .##.&&&&&.       ...#.",
"                                    .o#.     .###$.. ..##&&&.             #.",
"                                    .o#.     ..###.. .###&&.              . ",
"                                    .##$$$     ..$$$..###&                  ",
"                                    .##...      .%.%X.###.                  ",
"                                    #. ..        %  .###.                   ",
"                                                 %   ##.                    ",
"                                                 .   ##.                    ",
"                                                    .##                     ",
"                                                    .#.                     ",
"                                                    .#.                     ",
"                                                    #.                      "
};
