/* XPM */
static char *_1d7e6bf295a46c5ce299ae58a0a5a10bfrqsDu8Ppnr3cxh[] = {
/* columns rows colors chars-per-pixel */
"76 67 14 1 ",
"  c None",
". c black",
"X c #1E1E1E",
"o c #2C2C2C",
"O c #3F3F3F",
"+ c #6D2C2C",
"@ c #78662C",
"# c #662C66",
"$ c #4E4E4E",
"% c gray40",
"& c gray48",
"* c #9B6366",
"= c #FFCE2C",
"- c #FFFFCE",
/* pixels */
"                                                                 ..         ",
"                                                                 O.         ",
"                                                                .O.         ",
"                                                               .O..         ",
"                                                           ..OOOO.          ",
"                                                          .OOOOO.           ",
"                                                         .OOOOOO.           ",
"                                                         .OOOOOOO           ",
"                                                        .OOOOO.OO..         ",
"                                                        &OOOOO.OOO.         ",
"                  .                                   .&.OOOOO..OOO         ",
"                 ..                                   &&.OO..O.&.OO.        ",
"                 ..                                  .&.OOO&&O.&&OOO.       ",
"                ...                                 .&..OO.&&O.&&.OOO       ",
"                .O.                                ..&.OOO.&&O..&&.OO.      ",
"                .O.                                .&&OOO.&&&OO.&&.OOO      ",
"             ..OOO                                &&&.OOO&&&&OO.&&&.OO.     ",
"             OOOOO                                &&&.OOO&&&&.O.&&&.OO.     ",
"            .OOOOO.                   ...        .&&&OOO.&&&&.O.&&&&.O..    ",
"            .OOOOOO.                  .O..      ..&&.OOO&&&&&.O.&&&&.OO.    ",
"           ..OOOOOOO.                 $OO$.     .&&..OO.&.o&&.O.&&&&&OO.    ",
"          .O..OO..OOO..              .OOO$$..  .&&&.OO.&&.o.&.O.&&&&&.OO.   ",
"          .O..OO..OOOO.              .OOOO$$. ..&&&OOO.&&Oo...O.&&&&&.OO.   ",
"         .O.&.OO.&.OOOO.             .$OO$.$$..&&&.OOO&&.OOO.&OO&&&&&&OO.   ",
"        ....&.OO.&&OOOOO..           .$+O$+.$$.&&.OOO.&.$.$O.&OO&&&&&&.OO   ",
"        .O.&&.OO.&&..OOOO.           .$$$+%..$.&&.OOO.&.%#$$.&OO&&&&&&.OO.  ",
"        OO&&&.OO.&&&&.OOOO.          .%$+$+O$....OOOO..O.#@@.&OO&&&&&&&.O.  ",
"       .OO&&&.OO.&&&&&.OOOO.         .+*$$$%$.$......&oO.$$#$&OO&&&&&&&.O.. ",
"       ...&&&.OO.&&&&&&.OOOO.         ...$*%$O$.%%%%&.oO$#$O*&OO&&&&&&&.O.. ",
"       O.&&&&..OO.&&&&&&..OOO..         $***$$%%%%%%&&..@$%@.&OO&&&&&&&&OO. ",
"       O.&&&&&.OO.&&&&&&&.OOOOO.        *$$+**$$%%%%%&&.**@%.&OO&&&&&&&&OO. ",
"      .O&&&&&&.OO.&&&&&&&&.OOOOO.       *#**$$%...%%&&%..@*..&OO&&&&&&&&.OO ",
"     .O.&&&&&&.OOO&&&&&&&&&..OOOO.      %*$*+%.===.&%==.%**&&&OO&&&&&&&&.OO ",
"     .O.&&&&&&&OOO&&&&&&&&&&&OOOOO.    ..$*O$$.====..==.*..&&&OO&&&&&&&&.OO.",
"     .O&&&&&&&&OOO&&&&&&&&&&&..OOOO...$OO.*$%$.===..=.=..&&&&&OO&&&&&&&&&OO.",
"     OO&&&&&&&&OOO&&&&&&&&&&&&.OOOOO.$O$$O$$$$.===..=.=..&&&&&OO&&&&&&&&&OO.",
"    .O.&&&&&&&&.OO.&&&&&&&&&&&&.OOOOO.O$$$$$$...........&&&&&&O.&&&&&&&&&.O.",
"    ..&&&&&&&&&.OO.&&&&&&&&&&&&&..OOOOO.O$$$%ooXXo.OO.X..&&&&&O.&&&&&&&&&.O.",
"    ..&&&&&&&&&.OOO&&&&&&&&&&&&&&.OOOOOO$O$$.ooOooo..oOo.&&&&&O.&&&&&&&&&.O.",
"    O.&&&&&&&&&.OOO&&&&&&&&&&&&&&&.OOOOO$$$$.OO$$OOO$$$OO  ..&O.....&&&&&.OO",
"   .O&&&&&&&&&&.OOO&&&&&&&&&&&&&&&&.OOOO$$$$$.%%%%%..%%%.     ..     .&&&..O",
"   .O&&&&&&&&&&&OOO&&&&&&&&&&&&&&&&..OOOO$$$$%.%%&.%%...      .       .&&..O",
"   ..&&&&&&&&&&&OOO&&&&........&&&&&.OOOO$$$$ooo.-.OOO--.              .&&.O",
"   ..&&&&&&&&&&&.OO....   .Xooo.&&OOOOO$$O$$$.XX.-.ooo--                &&.O",
"  .O.&&&&&&&&&&&.OO.      .ooooOoOoOOOO$$$$$$%%%%.....-.                .&.O",
"  .O&&&&&&&&&&&&.OO.      oooooooooOOO$O$$$$$%%$$.%.. .                  &.O",
"  .O&&&&&&&&&&&&.OO.      XXoooOoOOOOOOOO$$$$$$%%%%                      .OO",
"  OO&&&&&&&&&&&&&.OO.     .oXoooOoOOOOOOO$..$$$%$.                       .O.",
"  O.&&&&&&&&&&&&&.OO.      ooooOooOOOO$OO$$$$....                        .O.",
" .O.&&&&&&&&&&&&&.OO.      XoooooOOOOOO$$$$$%%%.                         .O.",
" ..&&&&&&&&&&&&&&.OOO      .oXooOoOOOOO$O$$$$%.                           . ",
" ..&&&&&&&&&&&&&&&OOO      .ooX.oOOOOO$O$$$$%.                            . ",
" ..&&&&&&&&&&&&&&&.OO       .oo..OOOOOOOO...                                ",
"...&&&&&&&&&&&&&&&.OO      ..oo.   .....                                    ",
".O.&&&&&&&&&&&&&&&.OO      .ooo.   .o.                                      ",
".O...       .&&&&&.OO. .$$..OOo    .Oo.                                     ",
".O             .&&&OO.. ..$OOO.     .Oo.                                    ",
" .              .&&OOO. ..OOO..     .Oo.                                    ",
"                  &OOO..$$$..     $$$OO.                                    ",
"                  .OOO.X%.%.      ...OO.                                    ",
"                   .OOO.  %        .. .O                                    ",
"                    .OO   %                                                 ",
"                    .OO   .                                                 ",
"                     OO.                                                    ",
"                     .O.                                                    ",
"                     .O.                                                    ",
"                      .O                                                    "
};
