/* XPM */
static char *f786377314e84786b2bff0d64ea60689KzdKScB7irN1lEb6[] = {
/* columns rows colors chars-per-pixel */
"75 92 12 1 ",
"  c None",
". c black",
"X c #282828",
"o c gray20",
"O c #663333",
"+ c #434343",
"@ c #505050",
"# c gray40",
"$ c gray47",
"% c #996666",
"& c #FFCC33",
"* c #FFFFCC",
/* pixels */
".                                                                          ",
".                                                                          ",
"...                                                                        ",
".+.                                                                        ",
" .+.                                                                       ",
"  .+..                                                                     ",
"   .+.                                                                     ",
"    ++.                                                                    ",
"    .++                                                                    ",
"    ..+.                                                                   ",
"      .+.                                                                  ",
"      .++.                                                              ...",
"       .+..                                                          ..++  ",
"       ..+..                                                      ..++.    ",
"       ..++$                                                     ..++..    ",
"        .++.$.                                                 .++...      ",
"         .++$$$.                                            ..++.$$.       ",
"         ..+.$$...                                         ..++.$$$.       ",
"          .+..$$$+.                                      ..++.$$$..        ",
"           ++.$$$+.                                    ..++..$$$$.         ",
"           .++.$$+.                                  ..++..$$$$$$          ",
"            ++.$$+.                                ..++..$$$$$$$.          ",
"            +++$$+..                              .+++.$$$$$$$$$.          ",
"            .++.$+..                            .+++.$$$$$$$$$$.           ",
"            ..++.+.$                          ..++.$$$$$$$$$$$$.           ",
"            ..++++.$                         ..++..$$$$$$$$$$$$            ",
"         ..  .++++.$.                      ..+++.$$$$$$$$$$$$$.            ",
"          .+..++++.$.                    ..++++.$$$$$$$$$$$$$$.            ",
"           ++.+++++$..           .       ..+++.$$$$$$$$$$$$$$$.            ",
"            .++++++$$.           +.    ..+++..$$$$$$$$$$$$$$$$.            ",
"            ..+++++$$.           +.   ..++++.$$$$$$$$$$$$$$$$$.            ",
"              .++++.$$           +. ..+++++.$$$$$$$$$$$$$$$$$$.            ",
"              .+++++.$.          +..+++++..$$$$$$$$$$$$$$$$$$$$            ",
"              .+++++.$.          ++.+++++.$$$$$$$$$$$$$$$$$$$$$            ",
"               ++++++..          .+++++..+++++++++++++...$$$$$$.           ",
"               +++++++$.         .++++++++++++++++++++++++...$$$.          ",
"               +++++++$.         .+++++++++.............+++++..$.          ",
"               ++++...+.         .+++++..$$$$$$$$$$$$$$$$$$$..++..         ",
"               ++++.$$+..        .++++..$$$$$$$$$$$$$$$$$$$$$$.++..        ",
"               ++++.$$$+.        .+++++..$$$$$$$$$$$$$$$$$$$$$$..          ",
"               ++++.$$$.+        .++..+++.$$$$$$$$$$$$$$$$$$$$.            ",
"               ++++.$$$..        .+++..++..$$$$$$$$$$$$$$$$$$$.            ",
"               ++++.$$$$.        +++.$$.++.$$$$$$$$$$$$$$$$$..             ",
"               .+++.$$$$.       .+++$$$$.++.$$$$$$$$$$$$$$$.               ",
"               .+++.$$$$.       .+++$$$$$.+.$$$$$$$$$$$$$$$.               ",
"               .+++.$$$$.      .+++.$$$$$$.+.$$$$$$$$$$$$$.                ",
"               .+++.$$$$.      ++++$$$$$$$$.+.$$$$$$$$$$$.                 ",
"               .+++.$$$$.      +++.$$$$$$$$.++.$$$$$$$$$$                  ",
"               .+++...$$.     .++.$$$$$$$$$$...$$$$$$$$..                  ",
"               .+++.++$$.     +++.$$$$$$$$$$$.+.$$$$$$$.                   ",
" .             .+++@+@.$.    .++.$$$$$$$$$$$$$...$$$$$.                    ",
" $.            .++@+++.$.   .++.$$$$$$$$$$$$$$.++$$$$$.                    ",
" $.            .+@+.+@.$.   .++.$$$$$$$$$$$$$$$++.$$$$.                    ",
" .$.           .@@.+@O.$$   ++.$$$$$$$$$$$$$$$$$.+.$$.                     ",
"...$.         .@@.@@@@O$$  .++.$$$$$$$$$$$$$$$$$$++$..                     ",
".@.$..        @@@#@@@@@$$  .++.$$$$$$$$$$$$$$$$$$.+..                      ",
".@@.##.      .@.O#O+@O.$$..++.$$$$$$$$$$$$$$$$$$$$...                      ",
".@@.#$.   .  .@.%#@##@.$$.+++.$$$$$$$$$$$$$$$$$$$$.+.                      ",
".@OO.$#..##@.#@O#+%@.%.$$.++..$$$$$$$$$$$$$$$$$$$$$+                       ",
".@@@O.###@#@.@@@%O%@$$$$.+++.$$$$$$$$$$$$$$$$$$$$...                       ",
" %@%%..#####@#@%@%@%.$$$.+++.$$$$$$$$$$$$$$$$$$$..                         ",
" .@@%.######..@%%%@%.$$.++++$$$$$$$$$$$$$$$$$..                            ",
" ..@%..##@.&&&@%%%%.$$.++++.$$$$$$$$$$$$$$$.                               ",
"  .%%.&.#.&&&&@%%%%.$$.++++.$$$$$$$$$$$$$..                                ",
"   ..&.&.&.&&&.@@@%..++++++$$$$$$$$$$$...                                  ",
"   ..&.&.&.&&&.@@O%++++++++$$$$$$$$$$$.                                    ",
"    .&&&.&&&&..@+++.++++++.$$$$$$$$$.                                      ",
"    ...+++.XXoX..@+@++++++.$$$$$$$.                                        ",
"    .......ooooo.@+++++++..$$$$$$..                                        ",
"   .++++++++++++.@+@+++o+.$$$$$..                                          ",
"    .#@#@@@@@@@..@+++++o++o$$$.X.                                          ",
"    ..##.#####..@++@++o+ooo$$$.XX                                          ",
"    .**.@#....@+.@++++++oooo$.oXX..                                        ",
"    .*.ooo.*X...@@++++++oooooooXXX.                                        ",
"     ..XXX.*..@@+@+@++oo++oooXXXoXX                                        ",
"      ..##@.#@@@+@+@+++o++ooooXXXXX                                        ",
"        ..##@@@@@@++++++oo+ooXooXXX                                        ",
"          ..@@@+@+.+++++oooooooXoX.                                        ",
"            ........++oo++ooooXXoo.                                        ",
"             .@@@+++++++ooooooooXX.                                        ",
"              .@+@+@++++oooooXooo.                                         ",
"               ..@+++++++o+oooooo.                                         ",
"                ..@++++o++ooooooo.                                         ",
"                      .....  .ooo.                                         ",
"                       XX..   oo+.                                         ",
"                      .oo.    .o+. @@.                                     ",
"                      .o.      ++@+.                                       ",
"                      ++.      .+@@..                                      ",
"                      @+@@@.    ..@@##.                                    ",
"                      @.@.        ...#.                                    ",
"                      .....       .. .                                     ",
"                                  .X                                       "
};
