/* XPM */
static char *e6f116b4228f41def0718cd53dce3073BtOqwmnUnWMcXJAI[] = {
/* columns rows colors chars-per-pixel */
"60 95 17 1 ",
"  c None",
". c black",
"X c #282828",
"o c gray20",
"O c #663333",
"+ c #666633",
"@ c #663366",
"# c #434343",
"$ c #505050",
"% c gray40",
"& c gray47",
"* c #993333",
"= c #996633",
"- c #993366",
"; c #996666",
": c #FFCC33",
"> c #FFFFCC",
/* pixels */
"             .                                              ",
"            ..                                              ",
"            ..                                              ",
"           ..                                               ",
"           #.                                         .     ",
"         .#..                                        ..     ",
"         .#&.                                        ..     ",
"        .#.&.                                        ..     ",
"        .#.&.                                        ..     ",
"       .#..&&.                                       #.     ",
"       .#.&&&&.                                     ..      ",
"       ##.&&&&.                                     ..      ",
"       ##&&&&&&.                                    ..      ",
"      .#.&&&&&&&..                                  #.      ",
"      .#.&&&&&&&&.                                  #.      ",
"      ##.&&&&&&&&&&&..                             .#.      ",
"      ##.&&&&&&&&&...                              .#..     ",
"     .#.&&&&&&&&&.#.                              ...&.     ",
"    .##.&&&&&&&..#&.                              .#.&.     ",
"    .##&&&&&&&&.#.&.                              .#.&&     ",
"    .##&&&&&&&.#.&&.                              .#&&&.    ",
"    ###&&&&&.##&&&.                               #.&&&.    ",
"    ###&&&&&##.&&&.                               #.&&&&    ",
"   .##.&&&&##.&&&&.                              .#.&&&&.   ",
"   .##.&&&.#..&&&&.                              .#.&&&&..  ",
"   .##.&&.##&&&&&&..                            ...&&&&&&.  ",
"   .##&&.##.&&&&&&&.                            .#.&&&&&&&. ",
".  .##&&.#.&&&&&&&&.                            .#.&&&&&&&. ",
"#  ###&.#.&&&&&&&&&.                            ##.&&&&&&&&.",
"...###.##&&&&&&&&&&&                            ##&&&&&&&&&.",
".#####.#.&&&&&&&&&&&.                          .##&&&&&&&&&.",
" ######.&&&&&&&&&&&&..                         .#.&&&&&&&&. ",
" ######.&&&&&&&&&&&&&.                         .#.&&&&&&&.. ",
" ..############......&.                        ##.&&&&&&..  ",
"   #######........#####.                      .#..&&&&&.#.  ",
"   ####....&&&&&&&.......                     .#.&&&&&&.#.  ",
"   .###&&&&&&&&&&&&&&&&.                     .##.&&&&..#.   ",
"    ###&&&&&&&&&&&&&&&.                      .##&&&&..#..   ",
"    ###&&&&&&&&&&&&&&&.                ##    ###&&&.###.    ",
"    .##.&&&&&&&&&&&&&&                 .#.  .###&.###..     ",
"    .##.&&&&&&&&&&&&&.                 ..#...###..###..     ",
"    ..#.&&&&&&&&&&&&&.                  .##########.&&.     ",
"     .#..&&&&&&&&&&&..                   ########.&&&       ",
"     .##.&&&&&&&&&&&.                    .#####...&&.       ",
"      ##.&&&&&&&&&&&                      ######&&&&.       ",
"      .##&&&&&&&&&&&                      ######.&&&.       ",
"      .##.&&&&&&&&&.                     .######..&&        ",
"      .##..&&&&&&&&.                    .####.&.##&&        ",
"       ###.&&&&&&&&.                    .###.&&..#&&        ",
"       .##.&&&&&&&..                   .###.&&&&&.#.        ",
"       .###.&&&&&&.                  ..###.&&&&&&&..        ",
"       .###.&&&&&&. .                .###.&&&&&&&&..        ",
"       ..##.&&&&&&..#.              ####..&&&&&&&.          ",
" ..     .###&&&&&&$#$.              ####.&&&&&&&..          ",
" ##     .###.&&&&$$.#.            .####.&&&&&&&.            ",
" #$.     ###..&.#$.$$#           .###..&&&&&&..             ",
".#.&     ####.&$$$.#$O           ####.&&&&&&..              ",
".$.&&.   .####.$#$$O$#         .####.&&&&&&.                ",
".$.&&%.  ..##.$$.@@+@+        .####.&&&&&&.                 ",
".$*.%&. ......$..$+@$$        .###..&&&&&&.                 ",
".O$%%&.%%%%%%.$;@+$.-.      ..###.&&&&&&&.                  ",
".;$O&%.%%%$$$.$+%-=@..      .####.&&&&&&.                   ",
".O%$&%.&%%%%$%$;+;;+..    ..####.&&&&&&.                    ",
" ;$O$.%%%%%$$$$;@;;O..   .#####.&&&&&..                     ",
" .;;;.&%%%$..%$;=;$;.    .####..&&&&&.                      ",
" ..;;;.%%::::.$$;;;... ..#####.&&&&&.                       ",
"  .;;.:..:::::$$#;@.#...#####.&&&&&&.                       ",
"   ..:.:.:.:::.$#$.##..#####..&&&&&.                        ",
"    ...:.:::::.$$$$.########.&&&&&.                         ",
"    .X....::...#$##.#######.&&&&&&                          ",
"    ....###XXoo.###.######..&&&&&.                          ",
"   .###########.$########.&&&&&&.                           ",
"   .$###$$###$$.$$$#####o&&&&&&..                           ",
"    %%%%%%%%%%..$$$#####o&&&&&&..                           ",
"    .&%%......$..########o&&&&.o.                           ",
"    .>>#$#.>#oo..##$###o##oooooXo.                          ",
"    .>.XXX.....#$#####oo#oooooooXX.                         ",
"    .......%%$$$$$$#####ooooooXXoX.                         ",
"         %$%%$$$$######o##oooXoXoX                          ",
"         ..$$%$$#$$#######oooXoXo.                          ",
"           .%$$$$##.###o#oooooXoX.                          ",
"            .....##$###o###ooXooX.                          ",
"            ..$$#$$#####oooooooXo.                          ",
"              .$#$$#####oooooXXXX.                          ",
"               ..$$####o##ooooooo                           ",
"                ...#####oooo.Xooo                           ",
"                    ..#o#... .o#.                           ",
"                      .X.     oo#  ..                       ",
"                      .o.     .##...$.                      ",
"                      o#.     .o#$#$                        ",
"                      ##.     .###$.                        ",
"                      #$$$..   ...%$.                       ",
"                     ..%.         $.%.                      ",
"                     ...X.        %...                      ",
"                                  ..                        "
};
