/* XPM */
static char *e8bf7ca2adfa4b73d1333a491630c4a91N2mdVurgZ5iYJC2[] = {
/* columns rows colors chars-per-pixel */
"75 92 12 1 ",
"  c None",
". c black",
"X c #1E1E1E",
"o c #2C2C2C",
"O c #3F3F3F",
"+ c #662C2C",
"@ c #4E4E4E",
"# c gray40",
"$ c gray48",
"% c #9B6666",
"& c #FFCE2C",
"* c #FFFFCE",
/* pixels */
"                                                                          .",
"                                                                          .",
"                                                                        ...",
"                                                                        .O.",
"                                                                       .O. ",
"                                                                     ..O.  ",
"                                                                     .O.   ",
"                                                                    .OO    ",
"                                                                    OO.    ",
"                                                                   .O..    ",
"                                                                  .O.      ",
"...                                                              .OO.      ",
"  OO..                                                          ..O.       ",
"    .OO..                                                      ..O..       ",
"    ..OO..                                                     $OO..       ",
"      ...OO.                                                 .$.OO.        ",
"       .$$.OO..                                            .$$$OO.         ",
"       .$$$.OO..                                         ...$$.O..         ",
"        ..$$$.OO..                                      .O$$$..O.          ",
"         .$$$$..OO..                                    .O$$$.OO           ",
"          $$$$$$..OO..                                  .O$$.OO.           ",
"          .$$$$$$$..OO..                                .O$$.OO            ",
"          .$$$$$$$$$.OOO.                              ..O$$OOO            ",
"           .$$$$$$$$$$.OOO.                            ..O$.OO.            ",
"           .$$$$$$$$$$$$.OO..                          $.O.OO..            ",
"            $$$$$$$$$$$$..OO..                         $.OOOO..            ",
"            .$$$$$$$$$$$$$.OOO..                      .$.OOOO.  ..         ",
"            .$$$$$$$$$$$$$$.OOOO..                    .$.OOOO..O.          ",
"            .$$$$$$$$$$$$$$$.OOO..       .           ..$OOOOO.OO           ",
"            .$$$$$$$$$$$$$$$$..OOO..    .O           .$$OOOOOO.            ",
"            .$$$$$$$$$$$$$$$$$.OOOO..   .O           .$$OOOOO..            ",
"            .$$$$$$$$$$$$$$$$$$.OOOOO.. .O           $$.OOOO.              ",
"            $$$$$$$$$$$$$$$$$$$$..OOOOO..O          .$.OOOOO.              ",
"            $$$$$$$$$$$$$$$$$$$$$.OOOOO.OO          .$.OOOOO.              ",
"           .$$$$$$...OOOOOOOOOOOOO..OOOOO.          ..OOOOOO               ",
"          .$$$...OOOOOOOOOOOOOOOOOOOOOOOO.         .$OOOOOOO               ",
"          .$..OOOOO.............OOOOOOOOO.         .$OOOOOOO               ",
"         ..OO..$$$$$$$$$$$$$$$$$$$..OOOOO.         .O...OOOO               ",
"        ..OO.$$$$$$$$$$$$$$$$$$$$$$..OOOO.        ..O$$.OOOO               ",
"          ..$$$$$$$$$$$$$$$$$$$$$$..OOOOO.        .O$$$.OOOO               ",
"            .$$$$$$$$$$$$$$$$$$$$.OOO..OO.        O.$$$.OOOO               ",
"            .$$$$$$$$$$$$$$$$$$$..OO..OOO.        ..$$$.OOOO               ",
"             ..$$$$$$$$$$$$$$$$$.OO.$$.OOO        .$$$$.OOOO               ",
"               .$$$$$$$$$$$$$$$.OO.$$$$OOO.       .$$$$.OOO.               ",
"               .$$$$$$$$$$$$$$$.O.$$$$$OOO.       .$$$$.OOO.               ",
"                .$$$$$$$$$$$$$.O.$$$$$$.OOO.      .$$$$.OOO.               ",
"                 .$$$$$$$$$$$.O.$$$$$$$$OOOO      .$$$$.OOO.               ",
"                  $$$$$$$$$$.OO.$$$$$$$$.OOO      .$$$$.OOO.               ",
"                  ..$$$$$$$$...$$$$$$$$$$.OO.     .$$...OOO.               ",
"                   .$$$$$$$.O.$$$$$$$$$$$.OOO     .$$OO.OOO.               ",
"                    .$$$$$...$$$$$$$$$$$$$.OO.    .$.@O@OOO.             . ",
"                    .$$$$$OO.$$$$$$$$$$$$$$.OO.   .$.OOO@OO.            .$ ",
"                    .$$$$.OO$$$$$$$$$$$$$$$.OO.   .$.@O.O@O.            .$ ",
"                     .$$.O.$$$$$$$$$$$$$$$$$.OO   $$.+@O.@@.           .$. ",
"                     ..$OO$$$$$$$$$$$$$$$$$$.OO.  $$+@@@@.@@.         .$...",
"                      ..O.$$$$$$$$$$$$$$$$$$.OO.  $$@@@@@#@@@        ..$.@.",
"                      ...$$$$$$$$$$$$$$$$$$$$.OO..$$.+@O+#+.@.      .##.@@.",
"                      .O.$$$$$$$$$$$$$$$$$$$$.OOO.$$.@##@#%.@.  .   .$#.@@.",
"                       O$$$$$$$$$$$$$$$$$$$$$..OO.$$.%.@%O#+@#.@##..#$.++@.",
"                       ...$$$$$$$$$$$$$$$$$$$$.OOO.$$$$@%+%@@@.@#@###.+@@@.",
"                         ..$$$$$$$$$$$$$$$$$$$.OOO.$$$.%@%@%@#@#####..%%@% ",
"                            ..$$$$$$$$$$$$$$$$$OOOO.$$.%@%%%@..######.%@@. ",
"                               .$$$$$$$$$$$$$$$.OOOO.$$.%%%%@&&&.@##..%@.. ",
"                                ..$$$$$$$$$$$$$.OOOO.$$.%%%%@&&&&.#.&.%%.  ",
"                                  ...$$$$$$$$$$$OOOOOO..%@@@.&&&.&.&.&..   ",
"                                    .$$$$$$$$$$$OOOOOOOO%+@@.&&&.&.&.&..   ",
"                                      .$$$$$$$$$.OOOOOO.OOO@..&&&&.&&&.    ",
"                                        .$$$$$$$.OOOOOO@O@..XoXX.OOO...    ",
"                                        ..$$$$$$..OOOOOOO@.ooooo.......    ",
"                                          ..$$$$$.OoOOO@O@.OOOOOOOOOOOO.   ",
"                                          .X.$$$oOOoOOOOO@..@@@@@@@#@#.    ",
"                                          XX.$$$oooOoOO@OO@..#####.##..    ",
"                                        ..XXo.$ooooOOOOOO@.O@....#@.**.    ",
"                                        .XXXoooooooOOOOOO@@...X*.ooo.*.    ",
"                                        XXoXXXoooOOooOO@O@O@@..*.XXX..     ",
"                                        XXXXXooooOOoOOO@O@O@@@#.@##..      ",
"                                        XXXooXooOooOOOOOO@@@@@@##..        ",
"                                        .XoXoooooooOOOOO.O@O@@@..          ",
"                                        .ooXXooooOOooOO........            ",
"                                        .XXooooooooOOOOOOO@@@.             ",
"                                         .oooXoooooOOOO@O@O@.              ",
"                                         .ooooooOoOOOOOOO@..               ",
"                                         .oooooooOOoOOOO@..                ",
"                                         .ooo.  .....                      ",
"                                         .Ooo   ..XX                       ",
"                                     .@@ .Oo.    .oo.                      ",
"                                       .O@OO      .o.                      ",
"                                      ..@@O.      .OO                      ",
"                                    .##@@..    .@@@O@                      ",
"                                    .#...        .@.@                      ",
"                                     . ..       .....                      ",
"                                       X.                                  "
};
