/* XPM */
static char *_ee1eb45e20d4c25a3df4013facd325eK53JFzB7myWjAL0E[] = {
/* columns rows colors chars-per-pixel */
"66 100 226 2 ",
"   c None",
".  c #060405",
"X  c #0C0606",
"o  c #0D0C0C",
"O  c #0E0A06",
"+  c #130B0A",
"@  c #1B0D0D",
"#  c #1A0504",
"$  c #13110D",
"%  c #1B150C",
"&  c #131313",
"*  c #1B1413",
"=  c #1C1B1B",
"-  c #1A1914",
";  c #250404",
":  c #2C0303",
">  c #200C0C",
",  c #2B0C0C",
"<  c #340101",
"1  c #3A0000",
"2  c #320E0E",
"3  c #3D0909",
"4  c #241313",
"5  c #2A1515",
"6  c #221D1B",
"7  c #2D1B1A",
"8  c #241B15",
"9  c #341313",
"0  c #341A1A",
"q  c #3B1E1E",
"w  c #3C1414",
"e  c #27221A",
"r  c #342619",
"t  c #3E1F20",
"y  c #242424",
"u  c #2B2323",
"i  c #2C2B2B",
"p  c #3D2020",
"a  c #342A28",
"s  c #3C3428",
"d  c #333333",
"f  c #3B3B3B",
"g  c #3C3636",
"h  c #450101",
"j  c #4D0101",
"k  c #400B0B",
"l  c #520000",
"z  c #5C0000",
"x  c #660000",
"c  c #6C0000",
"v  c #42361D",
"b  c #432222",
"n  c #4A2626",
"m  c #4E2828",
"M  c #482E27",
"N  c #522A2A",
"B  c #532A2A",
"V  c #5A2E2E",
"C  c #5D2F2F",
"Z  c #5B2E2E",
"A  c #453A29",
"S  c #443737",
"D  c #5E3030",
"F  c #5E3030",
"G  c #583737",
"H  c #623131",
"J  c #663333",
"K  c #673333",
"L  c #643333",
"P  c #673434",
"I  c #643434",
"U  c #653232",
"Y  c #683434",
"T  c #6A3535",
"R  c #6D3737",
"E  c #6A3535",
"W  c #6E3838",
"Q  c #6C3939",
"!  c #713A3A",
"~  c #763C3C",
"^  c #733B3B",
"/  c #7A3E3E",
"(  c #602F2F",
")  c #057337",
"_  c #574826",
"`  c #4A4335",
"'  c #574D36",
"]  c #5A523E",
"[  c #4D4022",
"{  c #66552B",
"}  c #6A5931",
"|  c #755F2E",
" . c #7C6735",
".. c #444444",
"X. c #4D4D4D",
"o. c #4E4744",
"O. c #594546",
"+. c #565555",
"@. c #51504F",
"#. c #7D4040",
"$. c #675C45",
"%. c #655959",
"&. c #714B4B",
"*. c #6C634C",
"=. c #696458",
"-. c #796E53",
";. c #666766",
":. c #756866",
">. c #787877",
",. c #787161",
"<. c #93793F",
"1. c #866F3C",
"2. c #844444",
"3. c #894747",
"4. c #884747",
"5. c #8A4747",
"6. c #884646",
"7. c #8B4848",
"8. c #834949",
"9. c #877B5C",
"0. c #8F7843",
"q. c #837F7F",
"w. c #807863",
"e. c #02A34E",
"r. c #1AB363",
"t. c #25A863",
"y. c #4FAE78",
"u. c #2BD37B",
"i. c #B38D39",
"p. c #9B8248",
"a. c #96855D",
"s. c #A68947",
"d. c #AA9158",
"f. c #B0934F",
"g. c #998B68",
"h. c #918B79",
"j. c #9D9377",
"k. c #8C816A",
"l. c #A89669",
"z. c #A99A77",
"x. c #B29471",
"c. c #BEA367",
"v. c #B9A77B",
"b. c #C09E50",
"n. c #C6A457",
"m. c #D3AE5A",
"M. c #D9B45C",
"N. c #E0B95E",
"B. c #CCB173",
"V. c #E3BC60",
"C. c #FFB77B",
"Z. c #CC8A70",
"A. c #F6CA68",
"S. c #FFD36B",
"D. c #E7C678",
"F. c #FAC573",
"G. c #FED473",
"H. c #FFD97D",
"J. c #FDD67B",
"K. c #EDC565",
"L. c #64A683",
"P. c #38D282",
"I. c #6ED39B",
"U. c #62E29F",
"Y. c #8D8C8B",
"T. c #878583",
"R. c #969595",
"E. c #9C9A9A",
"W. c #8C908E",
"Q. c #A89D82",
"!. c #ADA38C",
"~. c #BFAC84",
"^. c #B2B094",
"/. c #A9A8A8",
"(. c #A2BEA6",
"). c #B8B7B7",
"_. c #BEB3AF",
"`. c #DB8780",
"'. c #FF998C",
"]. c #F28D87",
"[. c #C7B483",
"{. c #D7B491",
"}. c #FAB981",
"|. c #F9A78E",
" X c #C2BFB8",
".X c #FFB6B3",
"XX c #80C793",
"oX c #91D5B1",
"OX c #8CE8B9",
"+X c #DAC493",
"@X c #E5C885",
"#X c #FFDA83",
"$X c #FFDD8D",
"%X c #F5D383",
"&X c #E5C996",
"*X c #EDD39E",
"=X c #FBDC98",
"-X c #EDD08B",
";X c #FFE29B",
":X c #FFE096",
">X c #C5C6B7",
",X c #D7CAAD",
"<X c #EBD7A2",
"1X c #F6D6AE",
"2X c #FEE4A5",
"3X c #FFE6AC",
"4X c #FFE9AE",
"5X c #F7E2AB",
"6X c #FFE9B2",
"7X c #FAE8B8",
"8X c #9BEFC3",
"9X c #B0EFCF",
"0X c #C7C7C5",
"qX c #D7D8D6",
"wX c #D7D5C4",
"eX c #CAE9D9",
"rX c #D3E0D9",
"tX c #FFEEC6",
"yX c #FFF3D6",
"uX c #DCF3E7",
"iX c #EDEDED",
"pX c #E2E2E3",
"aX c #EFF6F4",
"sX c #F4F4F4",
"dX c #FEFFFF",
"fX c #F7F8F8",
/* pixels */
"                                                                                                                                    ",
"                                                                        @ q n 0 +                                                   ",
"                                                                    X 0 I / #.~ H 0 O                                               ",
"                                                  O * 5 0 5 @   X 5 N ^ ^ Y Y Y / #.N *                                             ",
"                                              @ q ( W ~ / ~ I N Z W ~ Y K L K Y #.3.3.P 5                                           ",
"                                          o 0 I / ~ W Y Y Y ^ ~ ~ W P K K K P Y 2.4.3.3.! 0                                         ",
"                                        + b ^ ^ Y K K L Y I K K P K L K K K P W 4.4.3.3.3.~ 0                                       ",
"                                      X n ^ Y L K K K K P P K K L K K L K K K R 2.3.3.3.3.3.^ 5                                     ",
"                                      q W Y L K K K K L K K L K I K L K K L K Y 2.4.4.3.3.3.3.E 4                                   ",
"                                    4 L Y P K K L L K P L K I K K K L K K K K P #.4.3.3.3.3.3.3.V +                                 ",
"                                  X m Y P K K L I K K L K K K L K K K L L I K L ~ 4.3.3.3.3.4.5.#.p                                 ",
"                                  5 P P K K K K K K K L K L L K L K K I K K L K W 4.3.3.3.3.4.5.5.^ 4                               ",
"                                  b Y K L K K L L L K L K L K P K L L K K L K K Y #.4.4.3.3.5.5.5.4.n                               ",
"                                @ Z Y P K K L K K K K K L K K L K K K L K I K I P Y #.2.4.3.5.5.5.2.R 4                             ",
"                                5 P K K K L K K K L L P L K K L L K K K K K K L P K P W ^ / / / ~ W R n                             ",
"                                p P L K L P I L K K K L K P L K I K L K K L L K K K K K I K Y Y K K P C *                           ",
"                              + n Y L K L L K K K K L L K L L K K K L K K L L K L K K K L K P L K K K P 0                           ",
"                              @ Z K K K K K K L L K K K K P K L L L K K L K P K K P L L K K L K K K K P n X                         ",
"                              4 L K K L L K L K K L K K L K K K P K P L K K K L L K L K K L L K K L K P Z @                         ",
"                              5 L K L K K K K K P P K K K L L P K L L K K L L K L K K K L P K K L K K K L 5                         ",
"                              0 K K K K C Z B N m N V Z L K K K L L P L K K L P K K L K L P K L K K K L K 0                         ",
"                              0 n b q 0 0 0 0 q q q 0 0 b ( K K K K K K L K K L L P L K K L L K P L K K P b                         ",
"                            o 4 q n N F P ^ ^ ^ ^ ~ ^ K 5 N K K P L L K L K K L K K K L K K L K K L K I Y n X                       ",
"                    + 4 q N P W ^ ^ ^ ^ R Y Y K Y K Y R 0 n K K K K L K P L K K L L K P L K K K L K K L P m +                 .     ",
"              X 5 b F W ^ ^ W Y Y K K K K L I K K L K L 0 b C C Z F C C ( C L F L F F L F L L F L K ( ( U m +         . O @ + @ +   ",
"          + q V W ^ ^ Y P P K K K K L K L K K K L K L P q @ 2 2 2 2 2 5 2 9 9 2 , 9 9 9 9 9 9 9 9 9 9 0 9 5 . X + @ 4 0 q q 4 7 +   ",
"        7 C ^ W P K P K K L L K K K K K L K K L K L K P F , z c x x x x x x x z z x x x z z z x z z x z z j # 0 q b b b b 0 5 5     ",
"      p R ^ P L P K L K K L K K L L K L P L K K L K K L Y b 1 x c c c c c c c c c c c c c c c c c c c c c l > b b b b p b 5 0 4     ",
"    5 P Y K K K K K K L K K K L K K K L P L L K K K K L P P w 1 x x x x x x x x x x x x x x c x x x x x x j > p b b b b 0 5 q X     ",
"  X n Y K K L K K L L K P L K K K L K L K K K L P L K K K Y Y 0 < z x x x x x x x x x x x x x x x x x x x j > p b b b q 4 n 4       ",
"  @ F Y K K L K K K K K K L K I L L K K L I K K K L K I K K Y W b : j x x x x x x x x x x x x x x x c x x j @ b b b t 4 b q .       ",
"  4 C K K K K L L I K L L K K L P K L K K L K K L K K L K K P Y ^ F w < l x x x x x c x x x x x x x x x c j > p b q 4 q N @         ",
"  @ n C K K K K K K K L L K K K K K K K K K I I K L K K K L L K P W W N 9 < j z x x x x x x x x x x x x x j > q 0 4 b F 4           ",
"  + 0 n N C F K L L K K K L K K K K K I K Y I P K K L K K K K K P P K ^ ^ Z q , < 1 h j j j j j j l l j l 1 @ 4 5 B K 5             ",
"    * q b n n n m N B V V Z Z C Z F F F ( L H H L L K L L L L L K K K K K ^ ^ Y N 0 , ; ; : < < < < < < : # @ b K Z 5               ",
"      @ 5 0 q p b b b b b b b n n b n n b n n n n n n m n n m m n N m N N N N Z H I I Z n 0 5 , , , , 0 t V Y L q @                 ",
"        X + @ 4 4 5 7 0 7 0 0 q 0 0 q q p t t p p b p b b b p b b b p b b p b b b b n Z F P P P I I I D F m 0 % X                   ",
"                    . . . = o.` A S M s u t r 7 e 7 7 5 8 4 5 4 4 4 5 8 5 5 5 5 5 8 8 8 5 5 6 5 5 5 4 * @ o .                       ",
"                        i !.1X<X&X+X+X{.[.z.v.[.~.v.v.z.s . X o o & & & & o . e k.g.g.l.k.r o & o & & & o o                         ",
"                      & h.tX4X:XH.H.#X:X&X&X<X4X6X4X4X4Xv._ r $ = o o o & & . ` <X6X6X6X<X` o & & o o & & &                         ",
"                      ` ,X6X=XS.S.S.S.G.+X{.*X4X4X3X4X3X$XV.g./.).W.;...6 4 - a.5X3X3X3X2X-.$ - f @.*.9.` $.                        ",
"                      =.7X6X#XS.S.S.S.#X&X&X*X3X3X4X3X3XJ.c.>XdXdXuXI.OXh.f.v.*X3X3X4X3X4X+Xd.h.rXeX^.v.*.a.$                       ",
"                      ,.7X3XH.S.S.S.S.#X3X5X2X4X4X3X3X2XK.z.sXdXdXuXt.P.(.n.;X4X4X4X4X3X4X3XD.wXfXoXXXz.*.g.%                       ",
"                      *.5X3X#XS.S.S.S.G.;X3X4X3X3X3X3X3XD.!.fXuX9XL.) r.oXc.;X4X3X6XtXtX4X2X@XqXeXy.y.z.*.,.$                       ",
"                      s +X3X=XG.S.S.S.G.J.2X3X3X3X3X3X3X%XQ.sX9Xu.e.t.U.(.B.2X4X3XtXyXyX7X2XD.wXU.t.I.x.@.`                         ",
"                      o -.5X3X#XS.S.S.S.S.#X;X3X3X3X3X3X2Xc. XiX8XU.8XrXQ.&X4X3X4X7X7X6X6X4X-X>X8XOX>Xz.e +                         ",
"                        - 9.<X2X$XJ.S.S.S.S.G.J.$X$X=X1X1X'.x. XqXeX0X!.[.3X4X3X4X4X4X3X4X3X2XB.0X0X{.x.*                           ",
"                          $ ] j.[.B.l.f.A.S.S.S.S.S.|..X.X'.].Z.x.c.c.D.:X:X;X=X*X2X3X2X2X3X3X=XB.{.'.`.                            ",
"                              $ e = e <.S.S.S.S.S.S.S.|.'.'.'.C.A.A.S.S.S.G.G.A.n.d.d.d.D.#X#XJ.J.C.`.].                            ",
"                                    O _ p.f.n.M.M.K.K.A.C.C.F.S.S.S.S.S.S.S.S.S.A.m.f.b.A.S.S.S.N.8.M                               ",
"                                          8 8 r v A { {  .0.<.f.n.M.V.K.A.S.S.S.S.G.S.G.S.A.M.s.[                                   ",
"                                                      . + 5 b ;.=.*.' { |  .1.0.s.s.s.s.<.} v %                                     ",
"                                                    @ 0 n C V /.aXpXh.i.i.1.h.Y.S # % $ X                                           ",
"                                                b n b n ( K ( w.sXpX>.0.V.0.).iX@., m 0 n 7                                         ",
"                                            4 N W R K Z L I H ' ).q.+.w.s.r ` ).O.B T n N L 5                                       ",
"                                          4 Z W K K K ( Z I K ( O.G %.Y.p 1 : ` G K Y B b R Z 4                                     ",
"                                          m Y P L K K C N K K L B K M S 1 w S 6 N K K Z b K R b                                     ",
"                                        q Y P L K K K N m ( K K K B , 1 w Y./.p C K T Z r K Y ( 5                                   ",
"                                        Z Y P K L L Z b n L K K m , 1 b R.fX/.t ( I R B b K K T b                                   ",
"                                      b Y K K K K B n 0 n K K n , 1 w E.fXfX/.p H K T B b K K K V                                   ",
"                                      Z K ( Z ( N b 0 b K K b , 1 : o.iXdXdXE.p ( K K B b K K K I                                   ",
"                                    L I K K m q q 0 q L K b : 1 , b %.iXdXdXR.p H K T B 0 Z K K I                                   ",
"                                  b L K K K V 0 5 0 n ( b , 1 , n K %.sXdXdXR.p H K T m 0 Z K I I b                                 ",
"                                  b P K K K B q 5 b n q : 1 , m Y ( :.aXdXdXY.t H K T n 0 H K I Y Z                                 ",
"                                  b Y K I I N 0 0 t 5 : < 5 B K Y ( :.fXdXdXT.t I I R n 0 H J J Y H                                 ",
"                                  b K B n n t 4 @ > ; < , m C ( ( C %.0XqXqX:.t F D H b 0 D P J I H                                 ",
"                                  5 n V ! ! Y b , 1 < # 5 0 0 0 0 0 6 f f f 6 7 q q t 5 7 n N V ( H                                 ",
"                                  = G 8.7.4.4.R n j j : # 5 5 5 4 6 >.).).R.d + 4 4 * o 5 b V F m b                                 ",
"                                  g R.&.7.4.2.R n h h < 5 b n n q f 0XiXiXpX+.0 n n a * V 2.3.7.Q 4 X                               ",
"                                  a :.Q Y Z n 7 4 ; : ; 6 u 7 7 5 y >.).).R.f 5 0 t u 7 Y 2.3.! p t @                               ",
"                                  5 L n @ $ = y & $ - + y i i i i i d f f g i y u u y 5 b H P b p t 4                               ",
"                                    4 * = y d d y = i y = d d d d d d d d d d d d f d & * = 4 t t 7 5                               ",
"                                    & i i d i i i & = = & y d d d d d d d d d d d d f i - = t t 8 * o                               ",
"                                  o i i i i i i i = + $.p.s i i i d d d d i d d d d d d - & t 4 y i 6                               ",
"                                  & i i i i i i d y - 9.B.} i d i i d d i i d d d d d a 9 6 y = i i y o                             ",
"                                  o = i i i i i i y & y [ A y i y = = = y i i d d i 0 h c 3 y = y i y o                             ",
"                                    = i i i d i i y - i y o i i & .     o y i d u 3 z x c j + = i i 6                               ",
"                                    & y i i i y = o & y = - i = o         o = , j x x x j 0 = y i i =                               ",
"                                    . y i y = o o & o & = y y o             X < j x z 3 y d i = i i &                               ",
"                                      o & o & & o & y i d i =               + , 1 h 9 d d d f = y y &                               ",
"                                            . = i i d d d y o               ;.;.> 5 i d d d d = . o                                 ",
"                                              i d d d d i -                 /.qX@.= d d d f d =                                     ",
"                                              y d d d d d y               >.qXqX;.= i d d d d i                                     ",
"                                              d g d d d d i             X.).0X>.= y d d d d d f                                     ",
"                                              i d d d d d y =           ;.Y.+.  o = y i i i i i &                                   ",
"                                            = d i i y i y y &                   = d f d d d f f i                                   ",
"                                            i X.X.X.X.......y                   = f X.@.@.@.X.@.d                                   ",
"                                            i X.X.X.X.@.X.f y                   = f X.X.X.X.X.X.d                                   ",
"                                            i ..X.X.X.X...f =                   - i f ..........y                                   ",
"                                              = u i d d i = &                     + 6 y u u 7 &                                     ",
"                                              @ p p p p 5 @                       @ p b n n b +                                     ",
"                                            @ 5 n B m n 0 +                       + p n B B n 5 @                                   ",
"                                  4 q n n p N V B m m n m p +                   + q N B N B V Z N b n n b 5                         ",
"                              + q B K K P F Z B B B B N V N 0                   5 N B B B N N B B L P K Y L b @                     ",
"                            O t L K K K I F B B B B B B N N b @               + p B B B N B B N B L K K K K K n @                   ",
"                            7 Z L K K K I V B B B m N N N N m 4               * n B m B N B N N B B F K K K K L b X                 ",
"                          @ n B F I L F V N N N N N N N N N N 0               5 n N N N N m N N N N V C C L C V n 4                 ",
"                          4 B B B B N N N N N m m n n m N m m 0 +             0 m N m N m n m m N N N N B N N N V 5                 ",
"                          4 n n n n b n b b b t q q p q q q q 7 X             5 q q t p q q q q q q b p b b b b n 5                 ",
"                          + > * @ @ @ @ @ + + + + + + + + + + O               + @ + + + + + + + + + + + + @ + @ + X                 "
};
