/* XPM */
static char *_bddaf47040348f6bf4fb49d654b3d0acPbVPH8ZRcc8NzXC[] = {
/* columns rows colors chars-per-pixel */
"25 25 10 1 ",
"  c None",
". c black",
"X c #010101",
"o c #020202",
"O c gray1",
"+ c #040404",
"@ c gray2",
"# c #060606",
"$ c #070707",
"% c gray3",
/* pixels */
"                   ooo@  ",
"                 %ooooo@ ",
"                 ooooooo ",
"                oooooooo@",
"                ooooooooo",
"       ooooo    ooooooooo",
"      ooooooo   ooooooooo",
"     oooooooo@  oooooooo@",
"    oooooooooo  oooooooo ",
"    oooooooooo  ooooooo@ ",
"   @ooooooooo@  ooooooo  ",
"   oooooooooo   oooooo   ",
"   oooooooooo  @ooooo@   ",
"   oooooooo@    @@ooo    ",
"   ooooooo@        @@    ",
"  oooooooo    oo@        ",
"  oooooo@    @oooo@      ",
"  oooooo     oooooo      ",
"    @ooo     @ooooo      ",
" @            @ooo       ",
"oooo@                    ",
"oooooo%                  ",
"oooooo                   ",
"@oooo@                   ",
" @@o@                    "
};
